<svg width="1259" height="362" viewBox="0 0 1259 362" fill="none" xmlns="http://www.w3.org/2000/svg">
<g filter="url(#filter0_d_3_49)">
<path d="M462.5 0V210C405.883 210 360 162.997 360 105C360 47.0026 405.883 0 462.5 0Z" fill="#EA4435"/>
<path d="M565 105C565 162.997 519.117 210 462.5 210V0C519.117 0 565 47.0026 565 105Z" fill="#547DBF"/>
<path d="M565 105C565 162.997 519.116 210 462.5 210C405.883 210 360 162.997 360 105H565Z" fill="#33A852"/>
<path d="M565 105C565 162.997 519.117 210 462.5 210V105H565Z" fill="#F9BC15"/>
</g>
<path d="M462.5 194C510.273 194 549 154.153 549 105C549 55.8467 510.273 16 462.5 16C414.727 16 376 55.8467 376 105C376 154.153 414.727 194 462.5 194Z" fill="white"/>
<path d="M423.675 92.025L415.95 97.65L411 90.075L426.075 79.2H433.5V130.5H423.675V92.025ZM465.345 131.7C461.045 131.7 457.27 130.55 454.02 128.25C450.77 125.9 448.245 122.7 446.445 118.65C444.695 114.55 443.82 109.95 443.82 104.85C443.82 99.75 444.695 95.175 446.445 91.125C448.245 87.025 450.77 83.825 454.02 81.525C457.27 79.175 461.045 78 465.345 78C469.645 78 473.42 79.175 476.67 81.525C479.92 83.825 482.42 87.025 484.17 91.125C485.97 95.175 486.87 99.75 486.87 104.85C486.87 109.95 485.97 114.55 484.17 118.65C482.42 122.7 479.92 125.9 476.67 128.25C473.42 130.55 469.645 131.7 465.345 131.7ZM465.345 122.475C467.745 122.475 469.82 121.725 471.57 120.225C473.37 118.675 474.72 116.575 475.62 113.925C476.57 111.225 477.045 108.2 477.045 104.85C477.045 99.65 475.995 95.425 473.895 92.175C471.795 88.875 468.945 87.225 465.345 87.225C461.795 87.225 458.97 88.875 456.87 92.175C454.77 95.475 453.72 99.7 453.72 104.85C453.72 108.2 454.17 111.225 455.07 113.925C456.02 116.575 457.37 118.675 459.12 120.225C460.92 121.725 462.995 122.475 465.345 122.475ZM529.68 114.525H516.855V127.275H508.155V114.525H495.405V105.825H508.155V93.075H516.855V105.825H529.68V114.525Z" fill="#5F5F5F"/>
<g filter="url(#filter1_d_3_49)">
<path d="M803 0V210C745.003 210 698 162.997 698 105C698 47.0026 745.003 0 803 0Z" fill="#EA4435"/>
<path d="M908 105C908 162.997 860.998 210 803 210V0C860.998 0 908 47.0026 908 105Z" fill="#547DBF"/>
<path d="M908 105C908 162.997 860.997 210 803 210C745.003 210 698 162.997 698 105H908Z" fill="#33A852"/>
<path d="M908 105C908 162.997 860.998 210 803 210V105H908Z" fill="#F9BC15"/>
</g>
<path d="M802.525 193.609C851.725 193.609 891.609 153.725 891.609 104.525C891.609 55.3255 851.725 15.4414 802.525 15.4414C753.325 15.4414 713.441 55.3255 713.441 104.525C713.441 153.725 753.325 193.609 802.525 193.609Z" fill="white"/>
<path d="M762.675 93.225L754.95 98.85L750 91.275L765.075 80.4H772.5V131.7H762.675V93.225ZM785.22 78H795.345V101.025H795.945L815.595 78H827.82V78.6L808.395 100.8L829.845 131.1V131.7H817.47L801.42 108.825L795.345 115.95V131.7H785.22V78ZM869.266 115.725H856.441V128.475H847.741V115.725H834.991V107.025H847.741V94.275H856.441V107.025H869.266V115.725Z" fill="#5F5F5F"/>
<g filter="url(#filter2_d_3_49)">
<path d="M109 0V210C51.0025 210 4 162.997 4 105C4 47.0026 51.0025 0 109 0Z" fill="#EA4435"/>
<path d="M214 105C214 162.997 166.997 210 109 210V0C166.997 0 214 47.0026 214 105Z" fill="#547DBF"/>
<path d="M214 105C214 162.997 166.997 210 109 210C51.0025 210 4 162.997 4 105H214Z" fill="#33A852"/>
<path d="M214 105C214 162.997 166.998 210 109 210V105H214Z" fill="#F9BC15"/>
</g>
<path d="M108.525 193.609C157.724 193.609 197.609 153.725 197.609 104.525C197.609 55.3255 157.724 15.4414 108.525 15.4414C59.3256 15.4414 19.4415 55.3255 19.4415 104.525C19.4415 153.725 59.3256 193.609 108.525 193.609Z" fill="white"/>
<path d="M77.525 131.7C73.225 131.7 69.45 130.55 66.2 128.25C62.95 125.9 60.425 122.7 58.625 118.65C56.875 114.55 56 109.95 56 104.85C56 99.75 56.875 95.175 58.625 91.125C60.425 87.025 62.95 83.825 66.2 81.525C69.45 79.175 73.225 78 77.525 78C81.825 78 85.6 79.175 88.85 81.525C92.1 83.825 94.6 87.025 96.35 91.125C98.15 95.175 99.05 99.75 99.05 104.85C99.05 109.95 98.15 114.55 96.35 118.65C94.6 122.7 92.1 125.9 88.85 128.25C85.6 130.55 81.825 131.7 77.525 131.7ZM77.525 122.475C79.925 122.475 82 121.725 83.75 120.225C85.55 118.675 86.9 116.575 87.8 113.925C88.75 111.225 89.225 108.2 89.225 104.85C89.225 99.65 88.175 95.425 86.075 92.175C83.975 88.875 81.125 87.225 77.525 87.225C73.975 87.225 71.15 88.875 69.05 92.175C66.95 95.475 65.9 99.7 65.9 104.85C65.9 108.2 66.35 111.225 67.25 113.925C68.2 116.575 69.55 118.675 71.3 120.225C73.1 121.725 75.175 122.475 77.525 122.475ZM124.235 131.7C119.885 131.7 116.035 130.55 112.685 128.25C109.385 125.95 107.11 122.6 105.86 118.2L115.16 114.525C115.76 116.975 116.835 118.875 118.385 120.225C119.935 121.525 121.885 122.175 124.235 122.175C126.385 122.175 128.235 121.525 129.785 120.225C131.385 118.925 132.185 117.275 132.185 115.275C132.185 113.125 131.335 111.425 129.635 110.175C127.985 108.875 125.735 108.225 122.885 108.225H118.46V99.3H122.51C124.71 99.3 126.56 98.75 128.06 97.65C129.61 96.55 130.385 94.95 130.385 92.85C130.385 91.15 129.76 89.75 128.51 88.65C127.26 87.55 125.66 87 123.71 87C121.66 87 120.01 87.55 118.76 88.65C117.51 89.75 116.635 91.125 116.135 92.775L107.21 89.1C108.26 86.1 110.185 83.5 112.985 81.3C115.835 79.1 119.435 78 123.785 78C126.985 78 129.835 78.6 132.335 79.8C134.885 81 136.86 82.65 138.26 84.75C139.66 86.8 140.36 89.125 140.36 91.725C140.36 94.475 139.71 96.825 138.41 98.775C137.16 100.725 135.635 102.15 133.835 103.05V103.65C136.335 104.65 138.36 106.225 139.91 108.375C141.46 110.525 142.235 113.125 142.235 116.175C142.235 119.125 141.485 121.775 139.985 124.125C138.485 126.475 136.36 128.325 133.61 129.675C130.91 131.025 127.785 131.7 124.235 131.7ZM184.634 114.525H171.809V127.275H163.109V114.525H150.359V105.825H163.109V93.075H171.809V105.825H184.634V114.525Z" fill="#5F5F5F"/>
<g filter="url(#filter3_d_3_49)">
<path d="M1150 0V210C1092 210 1045 162.997 1045 105C1045 47.0026 1092 0 1150 0Z" fill="#EA4435"/>
<path d="M1255 105C1255 162.997 1208 210 1150 210V0C1208 0 1255 47.0026 1255 105Z" fill="#547DBF"/>
<path d="M1255 105C1255 162.997 1208 210 1150 210C1092 210 1045 162.997 1045 105H1255Z" fill="#33A852"/>
<path d="M1255 105C1255 162.997 1208 210 1150 210V105H1255Z" fill="#F9BC15"/>
</g>
<path d="M1149.52 193.609C1198.72 193.609 1238.61 153.725 1238.61 104.525C1238.61 55.3255 1198.72 15.4414 1149.52 15.4414C1100.33 15.4414 1060.44 55.3255 1060.44 104.525C1060.44 153.725 1100.33 193.609 1149.52 193.609Z" fill="white"/>
<path d="M1079.36 118.86C1080.68 117.54 1083.22 115 1086.98 111.24C1090.78 107.44 1093.22 104.96 1094.3 103.8C1095.74 102.24 1096.72 100.94 1097.24 99.9C1097.8 98.86 1098.08 97.68 1098.08 96.36C1098.08 94.96 1097.56 93.78 1096.52 92.82C1095.48 91.86 1094.1 91.38 1092.38 91.38C1090.7 91.38 1089.34 91.86 1088.3 92.82C1087.26 93.78 1086.52 94.98 1086.08 96.42L1079 93.48C1079.44 91.92 1080.24 90.42 1081.4 88.98C1082.6 87.5 1084.14 86.3 1086.02 85.38C1087.9 84.46 1090.06 84 1092.5 84C1095.22 84 1097.6 84.54 1099.64 85.62C1101.68 86.66 1103.26 88.1 1104.38 89.94C1105.5 91.74 1106.06 93.76 1106.06 96C1106.06 100.44 1103.9 104.78 1099.58 109.02C1097.82 110.74 1094.56 113.98 1089.8 118.74L1089.98 119.1H1106.6V126H1079.36V118.86ZM1129.8 126.96C1126.36 126.96 1123.34 126.04 1120.74 124.2C1118.14 122.32 1116.12 119.76 1114.68 116.52C1113.28 113.24 1112.58 109.56 1112.58 105.48C1112.58 101.4 1113.28 97.74 1114.68 94.5C1116.12 91.22 1118.14 88.66 1120.74 86.82C1123.34 84.94 1126.36 84 1129.8 84C1133.24 84 1136.26 84.94 1138.86 86.82C1141.46 88.66 1143.46 91.22 1144.86 94.5C1146.3 97.74 1147.02 101.4 1147.02 105.48C1147.02 109.56 1146.3 113.24 1144.86 116.52C1143.46 119.76 1141.46 122.32 1138.86 124.2C1136.26 126.04 1133.24 126.96 1129.8 126.96ZM1129.8 119.58C1131.72 119.58 1133.38 118.98 1134.78 117.78C1136.22 116.54 1137.3 114.86 1138.02 112.74C1138.78 110.58 1139.16 108.16 1139.16 105.48C1139.16 101.32 1138.32 97.94 1136.64 95.34C1134.96 92.7 1132.68 91.38 1129.8 91.38C1126.96 91.38 1124.7 92.7 1123.02 95.34C1121.34 97.98 1120.5 101.36 1120.5 105.48C1120.5 108.16 1120.86 110.58 1121.58 112.74C1122.34 114.86 1123.42 116.54 1124.82 117.78C1126.26 118.98 1127.92 119.58 1129.8 119.58ZM1170.29 126.96C1166.85 126.96 1163.83 126.04 1161.23 124.2C1158.63 122.32 1156.61 119.76 1155.17 116.52C1153.77 113.24 1153.07 109.56 1153.07 105.48C1153.07 101.4 1153.77 97.74 1155.17 94.5C1156.61 91.22 1158.63 88.66 1161.23 86.82C1163.83 84.94 1166.85 84 1170.29 84C1173.73 84 1176.75 84.94 1179.35 86.82C1181.95 88.66 1183.95 91.22 1185.35 94.5C1186.79 97.74 1187.51 101.4 1187.51 105.48C1187.51 109.56 1186.79 113.24 1185.35 116.52C1183.95 119.76 1181.95 122.32 1179.35 124.2C1176.75 126.04 1173.73 126.96 1170.29 126.96ZM1170.29 119.58C1172.21 119.58 1173.87 118.98 1175.27 117.78C1176.71 116.54 1177.79 114.86 1178.51 112.74C1179.27 110.58 1179.65 108.16 1179.65 105.48C1179.65 101.32 1178.81 97.94 1177.13 95.34C1175.45 92.7 1173.17 91.38 1170.29 91.38C1167.45 91.38 1165.19 92.7 1163.51 95.34C1161.83 97.98 1160.99 101.36 1160.99 105.48C1160.99 108.16 1161.35 110.58 1162.07 112.74C1162.83 114.86 1163.91 116.54 1165.31 117.78C1166.75 118.98 1168.41 119.58 1170.29 119.58ZM1221.76 113.22H1211.5V123.42H1204.54V113.22H1194.34V106.26H1204.54V96.06H1211.5V106.26H1221.76V113.22Z" fill="#5F5F5F"/>
<path d="M58.7803 282.014L48.6583 265.928H54.2443L61.0063 277.1H61.2583L67.8103 265.928H73.4383L63.4843 282.014V296H58.7803V282.014ZM82.3226 296.672C80.2226 296.672 78.3326 296.182 76.6526 295.202C75.0006 294.222 73.6986 292.878 72.7466 291.17C71.8226 289.434 71.3606 287.488 71.3606 285.332C71.3606 283.288 71.8086 281.398 72.7046 279.662C73.6286 277.898 74.9026 276.498 76.5266 275.462C78.1506 274.426 79.9986 273.908 82.0706 273.908C84.2266 273.908 86.0886 274.384 87.6566 275.336C89.2526 276.288 90.4566 277.59 91.2686 279.242C92.1086 280.894 92.5286 282.756 92.5286 284.828C92.5286 285.22 92.4866 285.71 92.4026 286.298H75.9806C76.1486 288.286 76.8486 289.826 78.0806 290.918C79.3406 291.982 80.7966 292.514 82.4486 292.514C83.7646 292.514 84.8986 292.22 85.8506 291.632C86.8306 291.016 87.6146 290.19 88.2026 289.154L92.1086 291.002C91.1006 292.766 89.7846 294.152 88.1606 295.16C86.5366 296.168 84.5906 296.672 82.3226 296.672ZM87.8246 282.77C87.7686 282.014 87.5306 281.272 87.1106 280.544C86.6906 279.788 86.0466 279.158 85.1786 278.654C84.3386 278.15 83.3026 277.898 82.0706 277.898C80.5866 277.898 79.3266 278.346 78.2906 279.242C77.2826 280.11 76.5826 281.286 76.1906 282.77H87.8246ZM103.661 296.672C102.121 296.672 100.749 296.378 99.5449 295.79C98.3409 295.174 97.4029 294.32 96.7309 293.228C96.0589 292.108 95.7229 290.848 95.7229 289.448C95.7229 287.236 96.5489 285.486 98.2009 284.198C99.8809 282.91 101.995 282.266 104.543 282.266C105.803 282.266 106.937 282.392 107.945 282.644C108.953 282.868 109.751 283.12 110.339 283.4V282.308C110.339 280.992 109.849 279.928 108.869 279.116C107.889 278.276 106.629 277.856 105.089 277.856C103.997 277.856 102.961 278.094 101.981 278.57C101.029 279.046 100.259 279.704 99.6709 280.544L96.4369 278.066C97.3889 276.75 98.6209 275.728 100.133 275C101.645 274.272 103.325 273.908 105.173 273.908C108.281 273.908 110.675 274.678 112.355 276.218C114.035 277.73 114.875 279.872 114.875 282.644V296H110.339V293.438H110.129C109.513 294.362 108.645 295.132 107.525 295.748C106.405 296.364 105.117 296.672 103.661 296.672ZM104.459 292.85C105.579 292.85 106.587 292.584 107.483 292.052C108.379 291.52 109.079 290.806 109.583 289.91C110.087 289.014 110.339 288.048 110.339 287.012C109.695 286.648 108.939 286.354 108.071 286.13C107.231 285.906 106.349 285.794 105.425 285.794C103.689 285.794 102.415 286.144 101.603 286.844C100.791 287.516 100.385 288.398 100.385 289.49C100.385 290.47 100.763 291.282 101.519 291.926C102.275 292.542 103.255 292.85 104.459 292.85ZM119.91 274.58H124.32V277.73H124.53C125.006 276.638 125.832 275.742 127.008 275.042C128.184 274.314 129.43 273.95 130.746 273.95C131.782 273.95 132.65 274.09 133.35 274.37V279.158C132.118 278.71 131.012 278.486 130.032 278.486C128.968 278.486 128.016 278.766 127.176 279.326C126.364 279.886 125.72 280.642 125.244 281.594C124.768 282.518 124.53 283.54 124.53 284.66V296H119.91V274.58ZM143.882 296.672C141.418 296.672 139.402 296.14 137.834 295.076C136.266 293.984 135.16 292.598 134.516 290.918L138.632 289.112C139.136 290.232 139.836 291.086 140.732 291.674C141.656 292.262 142.706 292.556 143.882 292.556C145.03 292.556 145.996 292.36 146.78 291.968C147.564 291.548 147.956 290.932 147.956 290.12C147.956 289.336 147.62 288.72 146.948 288.272C146.276 287.824 145.24 287.432 143.84 287.096L141.278 286.466C139.57 286.046 138.156 285.304 137.036 284.24C135.916 283.176 135.356 281.832 135.356 280.208C135.356 278.948 135.72 277.842 136.448 276.89C137.204 275.938 138.212 275.21 139.472 274.706C140.732 274.174 142.104 273.908 143.588 273.908C145.576 273.908 147.326 274.314 148.838 275.126C150.35 275.91 151.442 277.058 152.114 278.57L148.082 280.334C147.27 278.682 145.786 277.856 143.63 277.856C142.594 277.856 141.726 278.066 141.026 278.486C140.326 278.906 139.976 279.452 139.976 280.124C139.976 280.768 140.242 281.3 140.774 281.72C141.306 282.112 142.09 282.448 143.126 282.728L146.276 283.526C148.376 284.058 149.958 284.87 151.022 285.962C152.114 287.026 152.66 288.342 152.66 289.91C152.66 291.254 152.268 292.444 151.484 293.48C150.728 294.488 149.678 295.272 148.334 295.832C146.99 296.392 145.506 296.672 143.882 296.672Z" fill="#353535"/>
<path d="M399.127 265.928H417.397V270.422H403.831V278.738H416.053V283.19H403.831V291.506H417.397V296H399.127V265.928ZM419.273 274.58H424.439L430.361 290.036H430.529L436.577 274.58H441.617L432.713 296H428.093L419.273 274.58ZM453.766 296.672C451.666 296.672 449.776 296.182 448.096 295.202C446.444 294.222 445.142 292.878 444.19 291.17C443.266 289.434 442.804 287.488 442.804 285.332C442.804 283.288 443.252 281.398 444.148 279.662C445.072 277.898 446.346 276.498 447.97 275.462C449.594 274.426 451.442 273.908 453.514 273.908C455.67 273.908 457.532 274.384 459.1 275.336C460.696 276.288 461.9 277.59 462.712 279.242C463.552 280.894 463.972 282.756 463.972 284.828C463.972 285.22 463.93 285.71 463.846 286.298H447.424C447.592 288.286 448.292 289.826 449.524 290.918C450.784 291.982 452.24 292.514 453.892 292.514C455.208 292.514 456.342 292.22 457.294 291.632C458.274 291.016 459.058 290.19 459.646 289.154L463.552 291.002C462.544 292.766 461.228 294.152 459.604 295.16C457.98 296.168 456.034 296.672 453.766 296.672ZM459.268 282.77C459.212 282.014 458.974 281.272 458.554 280.544C458.134 279.788 457.49 279.158 456.622 278.654C455.782 278.15 454.746 277.898 453.514 277.898C452.03 277.898 450.77 278.346 449.734 279.242C448.726 280.11 448.026 281.286 447.634 282.77H459.268ZM468.179 274.58H472.589V277.394H472.799C473.415 276.386 474.325 275.56 475.529 274.916C476.761 274.244 478.063 273.908 479.435 273.908C482.039 273.908 484.013 274.678 485.357 276.218C486.729 277.73 487.415 279.802 487.415 282.434V296H482.795V283.064C482.795 281.384 482.375 280.152 481.535 279.368C480.723 278.584 479.589 278.192 478.133 278.192C477.097 278.192 476.173 278.486 475.361 279.074C474.549 279.634 473.919 280.39 473.471 281.342C473.023 282.294 472.799 283.316 472.799 284.408V296H468.179V274.58ZM500.336 296.336C499.384 296.336 498.488 296.182 497.648 295.874C496.808 295.566 496.122 295.16 495.59 294.656C494.386 293.452 493.784 291.814 493.784 289.742V278.654H490.046V274.58H493.784V268.532H498.404V274.58H503.612V278.654H498.404V288.734C498.404 289.882 498.628 290.694 499.076 291.17C499.496 291.73 500.224 292.01 501.26 292.01C501.736 292.01 502.156 291.954 502.52 291.842C502.884 291.702 503.276 291.492 503.696 291.212V295.706C502.772 296.126 501.652 296.336 500.336 296.336ZM516.228 296.672C513.764 296.672 511.748 296.14 510.18 295.076C508.612 293.984 507.506 292.598 506.862 290.918L510.978 289.112C511.482 290.232 512.182 291.086 513.078 291.674C514.002 292.262 515.052 292.556 516.228 292.556C517.376 292.556 518.342 292.36 519.126 291.968C519.91 291.548 520.302 290.932 520.302 290.12C520.302 289.336 519.966 288.72 519.294 288.272C518.622 287.824 517.586 287.432 516.186 287.096L513.624 286.466C511.916 286.046 510.502 285.304 509.382 284.24C508.262 283.176 507.702 281.832 507.702 280.208C507.702 278.948 508.066 277.842 508.794 276.89C509.55 275.938 510.558 275.21 511.818 274.706C513.078 274.174 514.45 273.908 515.934 273.908C517.922 273.908 519.672 274.314 521.184 275.126C522.696 275.91 523.788 277.058 524.46 278.57L520.428 280.334C519.616 278.682 518.132 277.856 515.976 277.856C514.94 277.856 514.072 278.066 513.372 278.486C512.672 278.906 512.322 279.452 512.322 280.124C512.322 280.768 512.588 281.3 513.12 281.72C513.652 282.112 514.436 282.448 515.472 282.728L518.622 283.526C520.722 284.058 522.304 284.87 523.368 285.962C524.46 287.026 525.006 288.342 525.006 289.91C525.006 291.254 524.614 292.444 523.83 293.48C523.074 294.488 522.024 295.272 520.68 295.832C519.336 296.392 517.852 296.672 516.228 296.672Z" fill="#353535"/>
<path d="M705.112 296.672C702.2 296.672 699.54 295.986 697.132 294.614C694.724 293.242 692.834 291.352 691.462 288.944C690.09 286.536 689.404 283.876 689.404 280.964C689.404 278.052 690.09 275.392 691.462 272.984C692.834 270.576 694.724 268.686 697.132 267.314C699.54 265.942 702.2 265.256 705.112 265.256C707.38 265.256 709.438 265.676 711.286 266.516C713.162 267.356 714.814 268.574 716.242 270.17L712.882 273.404C711.846 272.172 710.698 271.262 709.438 270.674C708.178 270.058 706.736 269.75 705.112 269.75C703.096 269.75 701.248 270.212 699.568 271.136C697.916 272.06 696.6 273.376 695.62 275.084C694.64 276.764 694.15 278.724 694.15 280.964C694.15 283.204 694.64 285.178 695.62 286.886C696.6 288.566 697.916 289.868 699.568 290.792C701.248 291.716 703.096 292.178 705.112 292.178C708.472 292.178 711.328 290.778 713.68 287.978L717.082 291.254C715.626 292.962 713.876 294.292 711.832 295.244C709.788 296.196 707.548 296.672 705.112 296.672ZM730.795 296.672C728.639 296.672 726.707 296.182 724.999 295.202C723.291 294.194 721.961 292.822 721.009 291.086C720.057 289.35 719.581 287.418 719.581 285.29C719.581 283.162 720.057 281.23 721.009 279.494C721.961 277.758 723.291 276.4 724.999 275.42C726.707 274.412 728.639 273.908 730.795 273.908C732.951 273.908 734.883 274.412 736.591 275.42C738.299 276.428 739.629 277.8 740.581 279.536C741.533 281.272 742.009 283.19 742.009 285.29C742.009 287.418 741.533 289.35 740.581 291.086C739.629 292.822 738.299 294.194 736.591 295.202C734.883 296.182 732.951 296.672 730.795 296.672ZM730.795 292.43C731.971 292.43 733.063 292.15 734.071 291.59C735.079 291.002 735.877 290.176 736.465 289.112C737.081 288.02 737.389 286.746 737.389 285.29C737.389 283.834 737.081 282.574 736.465 281.51C735.877 280.446 735.079 279.634 734.071 279.074C733.063 278.486 731.971 278.192 730.795 278.192C729.619 278.192 728.527 278.486 727.519 279.074C726.511 279.634 725.699 280.446 725.083 281.51C724.495 282.574 724.201 283.834 724.201 285.29C724.201 286.746 724.495 288.02 725.083 289.112C725.699 290.176 726.511 291.002 727.519 291.59C728.527 292.15 729.619 292.43 730.795 292.43ZM745.859 274.58H750.269V277.394H750.479C751.123 276.358 752.033 275.518 753.209 274.874C754.385 274.23 755.645 273.908 756.989 273.908C758.529 273.908 759.873 274.272 761.021 275C762.169 275.7 762.995 276.638 763.499 277.814C764.227 276.638 765.193 275.7 766.397 275C767.629 274.272 769.071 273.908 770.723 273.908C773.187 273.908 775.049 274.664 776.309 276.176C777.597 277.66 778.241 279.69 778.241 282.266V296H773.621V283.064C773.621 279.816 772.235 278.192 769.463 278.192C767.979 278.192 766.761 278.794 765.809 279.998C764.857 281.202 764.381 282.686 764.381 284.45V296H759.761V283.064C759.761 279.816 758.333 278.192 755.477 278.192C754.021 278.192 752.817 278.794 751.865 279.998C750.941 281.202 750.479 282.686 750.479 284.45V296H745.859V274.58ZM783.511 274.58H787.921V277.394H788.131C788.775 276.358 789.685 275.518 790.861 274.874C792.037 274.23 793.297 273.908 794.641 273.908C796.181 273.908 797.525 274.272 798.673 275C799.821 275.7 800.647 276.638 801.151 277.814C801.879 276.638 802.845 275.7 804.049 275C805.281 274.272 806.723 273.908 808.375 273.908C810.839 273.908 812.701 274.664 813.961 276.176C815.249 277.66 815.893 279.69 815.893 282.266V296H811.273V283.064C811.273 279.816 809.887 278.192 807.115 278.192C805.631 278.192 804.413 278.794 803.461 279.998C802.509 281.202 802.033 282.686 802.033 284.45V296H797.413V283.064C797.413 279.816 795.985 278.192 793.129 278.192C791.673 278.192 790.469 278.794 789.517 279.998C788.593 281.202 788.131 282.686 788.131 284.45V296H783.511V274.58ZM828.976 296.672C826.372 296.672 824.384 295.902 823.012 294.362C821.668 292.794 820.996 290.624 820.996 287.852V274.58H825.616V287.222C825.616 288.958 826.022 290.26 826.834 291.128C827.674 291.996 828.766 292.43 830.11 292.43C831.202 292.43 832.168 292.15 833.008 291.59C833.848 291.002 834.492 290.232 834.94 289.28C835.388 288.328 835.612 287.306 835.612 286.214V274.58H840.232V296H835.864V293.228H835.612C835.024 294.236 834.114 295.062 832.882 295.706C831.65 296.35 830.348 296.672 828.976 296.672ZM845.609 274.58H850.019V277.394H850.229C850.845 276.386 851.755 275.56 852.959 274.916C854.191 274.244 855.493 273.908 856.865 273.908C859.469 273.908 861.443 274.678 862.787 276.218C864.159 277.73 864.845 279.802 864.845 282.434V296H860.225V283.064C860.225 281.384 859.805 280.152 858.965 279.368C858.153 278.584 857.019 278.192 855.563 278.192C854.527 278.192 853.603 278.486 852.791 279.074C851.979 279.634 851.349 280.39 850.901 281.342C850.453 282.294 850.229 283.316 850.229 284.408V296H845.609V274.58ZM872.7 271.472C871.832 271.472 871.09 271.178 870.474 270.59C869.886 269.974 869.592 269.232 869.592 268.364C869.592 267.496 869.886 266.768 870.474 266.18C871.09 265.564 871.832 265.256 872.7 265.256C873.568 265.256 874.296 265.564 874.884 266.18C875.5 266.768 875.808 267.496 875.808 268.364C875.808 269.232 875.5 269.974 874.884 270.59C874.296 271.178 873.568 271.472 872.7 271.472ZM870.39 274.58H875.01V296H870.39V274.58ZM889.332 296.336C888.38 296.336 887.484 296.182 886.644 295.874C885.804 295.566 885.118 295.16 884.586 294.656C883.382 293.452 882.78 291.814 882.78 289.742V278.654H879.042V274.58H882.78V268.532H887.4V274.58H892.608V278.654H887.4V288.734C887.4 289.882 887.624 290.694 888.072 291.17C888.492 291.73 889.22 292.01 890.256 292.01C890.732 292.01 891.152 291.954 891.516 291.842C891.88 291.702 892.272 291.492 892.692 291.212V295.706C891.768 296.126 890.648 296.336 889.332 296.336ZM903.759 294.824L894.855 274.58H900.021L906.069 289.154H906.237L912.117 274.58H917.199L903.969 305.072H899.097L903.759 294.824ZM712.962 318.928H719.346L727.998 341.734H728.25L736.902 318.928H743.286V349H738.624V332.158L738.876 326.74H738.624L730.014 349H726.234L717.624 326.74H717.372L717.624 332.158V349H712.962V318.928ZM759.193 349.672C757.093 349.672 755.203 349.182 753.523 348.202C751.871 347.222 750.569 345.878 749.617 344.17C748.693 342.434 748.231 340.488 748.231 338.332C748.231 336.288 748.679 334.398 749.575 332.662C750.499 330.898 751.773 329.498 753.397 328.462C755.021 327.426 756.869 326.908 758.941 326.908C761.097 326.908 762.959 327.384 764.527 328.336C766.123 329.288 767.327 330.59 768.139 332.242C768.979 333.894 769.399 335.756 769.399 337.828C769.399 338.22 769.357 338.71 769.273 339.298H752.851C753.019 341.286 753.719 342.826 754.951 343.918C756.211 344.982 757.667 345.514 759.319 345.514C760.635 345.514 761.769 345.22 762.721 344.632C763.701 344.016 764.485 343.19 765.073 342.154L768.979 344.002C767.971 345.766 766.655 347.152 765.031 348.16C763.407 349.168 761.461 349.672 759.193 349.672ZM764.695 335.77C764.639 335.014 764.401 334.272 763.981 333.544C763.561 332.788 762.917 332.158 762.049 331.654C761.209 331.15 760.173 330.898 758.941 330.898C757.457 330.898 756.197 331.346 755.161 332.242C754.153 333.11 753.453 334.286 753.061 335.77H764.695ZM773.606 327.58H778.016V330.394H778.226C778.87 329.358 779.78 328.518 780.956 327.874C782.132 327.23 783.392 326.908 784.736 326.908C786.276 326.908 787.62 327.272 788.768 328C789.916 328.7 790.742 329.638 791.246 330.814C791.974 329.638 792.94 328.7 794.144 328C795.376 327.272 796.818 326.908 798.47 326.908C800.934 326.908 802.796 327.664 804.056 329.176C805.344 330.66 805.988 332.69 805.988 335.266V349H801.368V336.064C801.368 332.816 799.982 331.192 797.21 331.192C795.726 331.192 794.508 331.794 793.556 332.998C792.604 334.202 792.128 335.686 792.128 337.45V349H787.508V336.064C787.508 332.816 786.08 331.192 783.224 331.192C781.768 331.192 780.564 331.794 779.612 332.998C778.688 334.202 778.226 335.686 778.226 337.45V349H773.606V327.58ZM822.682 349.672C821.17 349.672 819.812 349.336 818.608 348.664C817.404 347.992 816.494 347.18 815.878 346.228H815.668V349H811.258V318.928H815.878V327.37L815.668 330.394H815.878C816.494 329.414 817.404 328.588 818.608 327.916C819.812 327.244 821.17 326.908 822.682 326.908C824.614 326.908 826.364 327.398 827.932 328.378C829.5 329.358 830.732 330.716 831.628 332.452C832.552 334.16 833.014 336.106 833.014 338.29C833.014 340.474 832.552 342.434 831.628 344.17C830.732 345.878 829.5 347.222 827.932 348.202C826.364 349.182 824.614 349.672 822.682 349.672ZM822.01 345.43C823.13 345.43 824.18 345.136 825.16 344.548C826.14 343.96 826.924 343.12 827.512 342.028C828.1 340.936 828.394 339.69 828.394 338.29C828.394 336.89 828.1 335.658 827.512 334.594C826.924 333.502 826.14 332.662 825.16 332.074C824.18 331.486 823.13 331.192 822.01 331.192C820.89 331.192 819.84 331.486 818.86 332.074C817.908 332.662 817.138 333.502 816.55 334.594C815.962 335.658 815.668 336.89 815.668 338.29C815.668 339.69 815.962 340.936 816.55 342.028C817.138 343.12 817.908 343.96 818.86 344.548C819.84 345.136 820.89 345.43 822.01 345.43ZM847.007 349.672C844.907 349.672 843.017 349.182 841.337 348.202C839.685 347.222 838.383 345.878 837.431 344.17C836.507 342.434 836.045 340.488 836.045 338.332C836.045 336.288 836.493 334.398 837.389 332.662C838.313 330.898 839.587 329.498 841.211 328.462C842.835 327.426 844.683 326.908 846.755 326.908C848.911 326.908 850.773 327.384 852.341 328.336C853.937 329.288 855.141 330.59 855.953 332.242C856.793 333.894 857.213 335.756 857.213 337.828C857.213 338.22 857.171 338.71 857.087 339.298H840.665C840.833 341.286 841.533 342.826 842.765 343.918C844.025 344.982 845.481 345.514 847.133 345.514C848.449 345.514 849.583 345.22 850.535 344.632C851.515 344.016 852.299 343.19 852.887 342.154L856.793 344.002C855.785 345.766 854.469 347.152 852.845 348.16C851.221 349.168 849.275 349.672 847.007 349.672ZM852.509 335.77C852.453 335.014 852.215 334.272 851.795 333.544C851.375 332.788 850.731 332.158 849.863 331.654C849.023 331.15 847.987 330.898 846.755 330.898C845.271 330.898 844.011 331.346 842.975 332.242C841.967 333.11 841.267 334.286 840.875 335.77H852.509ZM861.42 327.58H865.83V330.73H866.04C866.516 329.638 867.342 328.742 868.518 328.042C869.694 327.314 870.94 326.95 872.256 326.95C873.292 326.95 874.16 327.09 874.86 327.37V332.158C873.628 331.71 872.522 331.486 871.542 331.486C870.478 331.486 869.526 331.766 868.686 332.326C867.874 332.886 867.23 333.642 866.754 334.594C866.278 335.518 866.04 336.54 866.04 337.66V349H861.42V327.58ZM885.393 349.672C882.929 349.672 880.913 349.14 879.345 348.076C877.777 346.984 876.671 345.598 876.027 343.918L880.143 342.112C880.647 343.232 881.347 344.086 882.243 344.674C883.167 345.262 884.217 345.556 885.393 345.556C886.541 345.556 887.507 345.36 888.291 344.968C889.075 344.548 889.467 343.932 889.467 343.12C889.467 342.336 889.131 341.72 888.459 341.272C887.787 340.824 886.751 340.432 885.351 340.096L882.789 339.466C881.081 339.046 879.667 338.304 878.547 337.24C877.427 336.176 876.867 334.832 876.867 333.208C876.867 331.948 877.231 330.842 877.959 329.89C878.715 328.938 879.723 328.21 880.983 327.706C882.243 327.174 883.615 326.908 885.099 326.908C887.087 326.908 888.837 327.314 890.349 328.126C891.861 328.91 892.953 330.058 893.625 331.57L889.593 333.334C888.781 331.682 887.297 330.856 885.141 330.856C884.105 330.856 883.237 331.066 882.537 331.486C881.837 331.906 881.487 332.452 881.487 333.124C881.487 333.768 881.753 334.3 882.285 334.72C882.817 335.112 883.601 335.448 884.637 335.728L887.787 336.526C889.887 337.058 891.469 337.87 892.533 338.962C893.625 340.026 894.171 341.342 894.171 342.91C894.171 344.254 893.779 345.444 892.995 346.48C892.239 347.488 891.189 348.272 889.845 348.832C888.501 349.392 887.017 349.672 885.393 349.672Z" fill="#353535"/>
<path d="M1059 265.928H1064.38L1075.68 296H1070.47L1067.78 288.314H1055.64L1052.91 296H1047.7L1059 265.928ZM1066.18 283.946L1062.99 275L1061.82 271.514H1061.56L1060.39 275L1057.2 283.946H1066.18ZM1086.31 296.336C1085.35 296.336 1084.46 296.182 1083.62 295.874C1082.78 295.566 1082.09 295.16 1081.56 294.656C1080.36 293.452 1079.75 291.814 1079.75 289.742V278.654H1076.02V274.58H1079.75V268.532H1084.37V274.58H1093.4V268.532H1098.02V274.58H1103.23V278.654H1098.02V288.734C1098.02 289.882 1098.25 290.694 1098.7 291.17C1099.12 291.73 1099.84 292.01 1100.88 292.01C1101.36 292.01 1101.78 291.954 1102.14 291.842C1102.5 291.702 1102.9 291.492 1103.32 291.212V295.706C1102.36 296.126 1101.24 296.336 1099.96 296.336C1099 296.336 1098.11 296.182 1097.27 295.874C1096.43 295.566 1095.74 295.16 1095.21 294.656C1094.01 293.452 1093.4 291.814 1093.4 289.742V278.654H1084.37V288.734C1084.37 289.882 1084.6 290.694 1085.05 291.17C1085.47 291.73 1086.18 292.01 1087.19 292.01C1087.92 292.01 1088.66 291.772 1089.41 291.296V295.79C1088.97 295.986 1088.5 296.126 1088.03 296.21C1087.58 296.294 1087.01 296.336 1086.31 296.336ZM1116.6 296.672C1114.5 296.672 1112.61 296.182 1110.93 295.202C1109.28 294.222 1107.98 292.878 1107.02 291.17C1106.1 289.434 1105.64 287.488 1105.64 285.332C1105.64 283.288 1106.09 281.398 1106.98 279.662C1107.91 277.898 1109.18 276.498 1110.8 275.462C1112.43 274.426 1114.28 273.908 1116.35 273.908C1118.5 273.908 1120.37 274.384 1121.93 275.336C1123.53 276.288 1124.73 277.59 1125.55 279.242C1126.39 280.894 1126.81 282.756 1126.81 284.828C1126.81 285.22 1126.76 285.71 1126.68 286.298H1110.26C1110.43 288.286 1111.13 289.826 1112.36 290.918C1113.62 291.982 1115.07 292.514 1116.73 292.514C1118.04 292.514 1119.18 292.22 1120.13 291.632C1121.11 291.016 1121.89 290.19 1122.48 289.154L1126.39 291.002C1125.38 292.766 1124.06 294.152 1122.44 295.16C1120.81 296.168 1118.87 296.672 1116.6 296.672ZM1122.1 282.77C1122.05 282.014 1121.81 281.272 1121.39 280.544C1120.97 279.788 1120.32 279.158 1119.46 278.654C1118.62 278.15 1117.58 277.898 1116.35 277.898C1114.86 277.898 1113.6 278.346 1112.57 279.242C1111.56 280.11 1110.86 281.286 1110.47 282.77H1122.1ZM1131.01 274.58H1135.42V277.394H1135.63C1136.25 276.386 1137.16 275.56 1138.36 274.916C1139.6 274.244 1140.9 273.908 1142.27 273.908C1144.87 273.908 1146.85 274.678 1148.19 276.218C1149.56 277.73 1150.25 279.802 1150.25 282.434V296H1145.63V283.064C1145.63 281.384 1145.21 280.152 1144.37 279.368C1143.56 278.584 1142.42 278.192 1140.97 278.192C1139.93 278.192 1139.01 278.486 1138.2 279.074C1137.38 279.634 1136.75 280.39 1136.31 281.342C1135.86 282.294 1135.63 283.316 1135.63 284.408V296H1131.01V274.58ZM1164.61 296.672C1162.68 296.672 1160.93 296.182 1159.36 295.202C1157.8 294.222 1156.55 292.878 1155.63 291.17C1154.73 289.434 1154.28 287.474 1154.28 285.29C1154.28 283.106 1154.73 281.16 1155.63 279.452C1156.55 277.716 1157.8 276.358 1159.36 275.378C1160.93 274.398 1162.68 273.908 1164.61 273.908C1166.13 273.908 1167.48 274.244 1168.69 274.916C1169.89 275.588 1170.8 276.414 1171.42 277.394H1171.63L1171.42 274.37V265.928H1176.04V296H1171.63V293.228H1171.42C1170.8 294.18 1169.89 294.992 1168.69 295.664C1167.48 296.336 1166.13 296.672 1164.61 296.672ZM1165.29 292.43C1166.41 292.43 1167.44 292.136 1168.39 291.548C1169.37 290.96 1170.16 290.12 1170.75 289.028C1171.33 287.936 1171.63 286.69 1171.63 285.29C1171.63 283.89 1171.33 282.658 1170.75 281.594C1170.16 280.502 1169.37 279.662 1168.39 279.074C1167.44 278.486 1166.41 278.192 1165.29 278.192C1164.17 278.192 1163.12 278.486 1162.14 279.074C1161.16 279.662 1160.37 280.502 1159.78 281.594C1159.2 282.658 1158.9 283.89 1158.9 285.29C1158.9 286.69 1159.2 287.936 1159.78 289.028C1160.37 290.12 1161.16 290.96 1162.14 291.548C1163.12 292.136 1164.17 292.43 1165.29 292.43ZM1191 296.672C1188.9 296.672 1187.01 296.182 1185.33 295.202C1183.68 294.222 1182.38 292.878 1181.43 291.17C1180.5 289.434 1180.04 287.488 1180.04 285.332C1180.04 283.288 1180.49 281.398 1181.38 279.662C1182.31 277.898 1183.58 276.498 1185.21 275.462C1186.83 274.426 1188.68 273.908 1190.75 273.908C1192.91 273.908 1194.77 274.384 1196.34 275.336C1197.93 276.288 1199.14 277.59 1199.95 279.242C1200.79 280.894 1201.21 282.756 1201.21 284.828C1201.21 285.22 1201.17 285.71 1201.08 286.298H1184.66C1184.83 288.286 1185.53 289.826 1186.76 290.918C1188.02 291.982 1189.48 292.514 1191.13 292.514C1192.44 292.514 1193.58 292.22 1194.53 291.632C1195.51 291.016 1196.29 290.19 1196.88 289.154L1200.79 291.002C1199.78 292.766 1198.46 294.152 1196.84 295.16C1195.22 296.168 1193.27 296.672 1191 296.672ZM1196.5 282.77C1196.45 282.014 1196.21 281.272 1195.79 280.544C1195.37 279.788 1194.73 279.158 1193.86 278.654C1193.02 278.15 1191.98 277.898 1190.75 277.898C1189.27 277.898 1188.01 278.346 1186.97 279.242C1185.96 280.11 1185.26 281.286 1184.87 282.77H1196.5ZM1215.41 296.672C1213.31 296.672 1211.42 296.182 1209.74 295.202C1208.08 294.222 1206.78 292.878 1205.83 291.17C1204.91 289.434 1204.44 287.488 1204.44 285.332C1204.44 283.288 1204.89 281.398 1205.79 279.662C1206.71 277.898 1207.99 276.498 1209.61 275.462C1211.23 274.426 1213.08 273.908 1215.15 273.908C1217.31 273.908 1219.17 274.384 1220.74 275.336C1222.34 276.288 1223.54 277.59 1224.35 279.242C1225.19 280.894 1225.61 282.756 1225.61 284.828C1225.61 285.22 1225.57 285.71 1225.49 286.298H1209.06C1209.23 288.286 1209.93 289.826 1211.16 290.918C1212.42 291.982 1213.88 292.514 1215.53 292.514C1216.85 292.514 1217.98 292.22 1218.93 291.632C1219.91 291.016 1220.7 290.19 1221.29 289.154L1225.19 291.002C1224.18 292.766 1222.87 294.152 1221.24 295.16C1219.62 296.168 1217.67 296.672 1215.41 296.672ZM1220.91 282.77C1220.85 282.014 1220.61 281.272 1220.19 280.544C1219.77 279.788 1219.13 279.158 1218.26 278.654C1217.42 278.15 1216.39 277.898 1215.15 277.898C1213.67 277.898 1212.41 278.346 1211.37 279.242C1210.37 280.11 1209.67 281.286 1209.27 282.77H1220.91ZM1237.84 296.672C1235.37 296.672 1233.36 296.14 1231.79 295.076C1230.22 293.984 1229.11 292.598 1228.47 290.918L1232.59 289.112C1233.09 290.232 1233.79 291.086 1234.69 291.674C1235.61 292.262 1236.66 292.556 1237.84 292.556C1238.98 292.556 1239.95 292.36 1240.73 291.968C1241.52 291.548 1241.91 290.932 1241.91 290.12C1241.91 289.336 1241.57 288.72 1240.9 288.272C1240.23 287.824 1239.19 287.432 1237.79 287.096L1235.23 286.466C1233.52 286.046 1232.11 285.304 1230.99 284.24C1229.87 283.176 1229.31 281.832 1229.31 280.208C1229.31 278.948 1229.67 277.842 1230.4 276.89C1231.16 275.938 1232.17 275.21 1233.43 274.706C1234.69 274.174 1236.06 273.908 1237.54 273.908C1239.53 273.908 1241.28 274.314 1242.79 275.126C1244.3 275.91 1245.4 277.058 1246.07 278.57L1242.04 280.334C1241.22 278.682 1239.74 277.856 1237.58 277.856C1236.55 277.856 1235.68 278.066 1234.98 278.486C1234.28 278.906 1233.93 279.452 1233.93 280.124C1233.93 280.768 1234.2 281.3 1234.73 281.72C1235.26 282.112 1236.04 282.448 1237.08 282.728L1240.23 283.526C1242.33 284.058 1243.91 284.87 1244.98 285.962C1246.07 287.026 1246.61 288.342 1246.61 289.91C1246.61 291.254 1246.22 292.444 1245.44 293.48C1244.68 294.488 1243.63 295.272 1242.29 295.832C1240.94 296.392 1239.46 296.672 1237.84 296.672Z" fill="#353535"/>
<defs>
<filter id="filter0_d_3_49" x="356" y="0" width="213" height="218" filterUnits="userSpaceOnUse" color-interpolation-filters="sRGB">
<feFlood flood-opacity="0" result="BackgroundImageFix"/>
<feColorMatrix in="SourceAlpha" type="matrix" values="0 0 0 0 0 0 0 0 0 0 0 0 0 0 0 0 0 0 127 0" result="hardAlpha"/>
<feOffset dy="4"/>
<feGaussianBlur stdDeviation="2"/>
<feComposite in2="hardAlpha" operator="out"/>
<feColorMatrix type="matrix" values="0 0 0 0 0 0 0 0 0 0 0 0 0 0 0 0 0 0 0.25 0"/>
<feBlend mode="normal" in2="BackgroundImageFix" result="effect1_dropShadow_3_49"/>
<feBlend mode="normal" in="SourceGraphic" in2="effect1_dropShadow_3_49" result="shape"/>
</filter>
<filter id="filter1_d_3_49" x="694" y="0" width="218" height="218" filterUnits="userSpaceOnUse" color-interpolation-filters="sRGB">
<feFlood flood-opacity="0" result="BackgroundImageFix"/>
<feColorMatrix in="SourceAlpha" type="matrix" values="0 0 0 0 0 0 0 0 0 0 0 0 0 0 0 0 0 0 127 0" result="hardAlpha"/>
<feOffset dy="4"/>
<feGaussianBlur stdDeviation="2"/>
<feComposite in2="hardAlpha" operator="out"/>
<feColorMatrix type="matrix" values="0 0 0 0 0 0 0 0 0 0 0 0 0 0 0 0 0 0 0.25 0"/>
<feBlend mode="normal" in2="BackgroundImageFix" result="effect1_dropShadow_3_49"/>
<feBlend mode="normal" in="SourceGraphic" in2="effect1_dropShadow_3_49" result="shape"/>
</filter>
<filter id="filter2_d_3_49" x="0" y="0" width="218" height="218" filterUnits="userSpaceOnUse" color-interpolation-filters="sRGB">
<feFlood flood-opacity="0" result="BackgroundImageFix"/>
<feColorMatrix in="SourceAlpha" type="matrix" values="0 0 0 0 0 0 0 0 0 0 0 0 0 0 0 0 0 0 127 0" result="hardAlpha"/>
<feOffset dy="4"/>
<feGaussianBlur stdDeviation="2"/>
<feComposite in2="hardAlpha" operator="out"/>
<feColorMatrix type="matrix" values="0 0 0 0 0 0 0 0 0 0 0 0 0 0 0 0 0 0 0.25 0"/>
<feBlend mode="normal" in2="BackgroundImageFix" result="effect1_dropShadow_3_49"/>
<feBlend mode="normal" in="SourceGraphic" in2="effect1_dropShadow_3_49" result="shape"/>
</filter>
<filter id="filter3_d_3_49" x="1041" y="0" width="218" height="218" filterUnits="userSpaceOnUse" color-interpolation-filters="sRGB">
<feFlood flood-opacity="0" result="BackgroundImageFix"/>
<feColorMatrix in="SourceAlpha" type="matrix" values="0 0 0 0 0 0 0 0 0 0 0 0 0 0 0 0 0 0 127 0" result="hardAlpha"/>
<feOffset dy="4"/>
<feGaussianBlur stdDeviation="2"/>
<feComposite in2="hardAlpha" operator="out"/>
<feColorMatrix type="matrix" values="0 0 0 0 0 0 0 0 0 0 0 0 0 0 0 0 0 0 0.25 0"/>
<feBlend mode="normal" in2="BackgroundImageFix" result="effect1_dropShadow_3_49"/>
<feBlend mode="normal" in="SourceGraphic" in2="effect1_dropShadow_3_49" result="shape"/>
</filter>
</defs>
</svg>
