<svg width="2284" height="554" viewBox="0 0 2284 554" fill="none" xmlns="http://www.w3.org/2000/svg">
<g clip-path="url(#clip0_0_1)">
<g filter="url(#filter0_d_0_1)">
<path d="M462.5 0V210C405.883 210 360 162.997 360 105C360 47.0026 405.883 0 462.5 0Z" fill="#EA4435"/>
<path d="M565 105C565 162.997 519.117 210 462.5 210V0C519.117 0 565 47.0026 565 105Z" fill="#547DBF"/>
<path d="M565 105C565 162.997 519.116 210 462.5 210C405.883 210 360 162.997 360 105H565Z" fill="#33A852"/>
<path d="M565 105C565 162.997 519.117 210 462.5 210V105H565Z" fill="#F9BC15"/>
</g>
<path d="M462.5 194C510.273 194 549 154.153 549 105C549 55.8467 510.273 16 462.5 16C414.727 16 376 55.8467 376 105C376 154.153 414.727 194 462.5 194Z" fill="white"/>
<path d="M423.675 92.025L415.95 97.65L411 90.075L426.075 79.2H433.5V130.5H423.675V92.025ZM465.345 131.7C461.045 131.7 457.27 130.55 454.02 128.25C450.77 125.9 448.245 122.7 446.445 118.65C444.695 114.55 443.82 109.95 443.82 104.85C443.82 99.75 444.695 95.175 446.445 91.125C448.245 87.025 450.77 83.825 454.02 81.525C457.27 79.175 461.045 78 465.345 78C469.645 78 473.42 79.175 476.67 81.525C479.92 83.825 482.42 87.025 484.17 91.125C485.97 95.175 486.87 99.75 486.87 104.85C486.87 109.95 485.97 114.55 484.17 118.65C482.42 122.7 479.92 125.9 476.67 128.25C473.42 130.55 469.645 131.7 465.345 131.7ZM465.345 122.475C467.745 122.475 469.82 121.725 471.57 120.225C473.37 118.675 474.72 116.575 475.62 113.925C476.57 111.225 477.045 108.2 477.045 104.85C477.045 99.65 475.995 95.425 473.895 92.175C471.795 88.875 468.945 87.225 465.345 87.225C461.795 87.225 458.97 88.875 456.87 92.175C454.77 95.475 453.72 99.7 453.72 104.85C453.72 108.2 454.17 111.225 455.07 113.925C456.02 116.575 457.37 118.675 459.12 120.225C460.92 121.725 462.995 122.475 465.345 122.475ZM529.68 114.525H516.855V127.275H508.155V114.525H495.405V105.825H508.155V93.075H516.855V105.825H529.68V114.525Z" fill="#5F5F5F"/>
</g>
<g clip-path="url(#clip1_0_1)">
<g filter="url(#filter1_d_0_1)">
<path d="M803 0V210C745.003 210 698 162.997 698 105C698 47.0026 745.003 0 803 0Z" fill="#EA4435"/>
<path d="M908 105C908 162.997 860.998 210 803 210V0C860.998 0 908 47.0026 908 105Z" fill="#547DBF"/>
<path d="M908 105C908 162.997 860.997 210 803 210C745.003 210 698 162.997 698 105H908Z" fill="#33A852"/>
<path d="M908 105C908 162.997 860.998 210 803 210V105H908Z" fill="#F9BC15"/>
</g>
<path d="M802.525 193.609C851.725 193.609 891.609 153.725 891.609 104.525C891.609 55.3255 851.725 15.4414 802.525 15.4414C753.325 15.4414 713.441 55.3255 713.441 104.525C713.441 153.725 753.325 193.609 802.525 193.609Z" fill="white"/>
<path d="M762.675 93.225L754.95 98.85L750 91.275L765.075 80.4H772.5V131.7H762.675V93.225ZM785.22 78H795.345V101.025H795.945L815.595 78H827.82V78.6L808.395 100.8L829.845 131.1V131.7H817.47L801.42 108.825L795.345 115.95V131.7H785.22V78ZM869.266 115.725H856.441V128.475H847.741V115.725H834.991V107.025H847.741V94.275H856.441V107.025H869.266V115.725Z" fill="#5F5F5F"/>
</g>
<g clip-path="url(#clip2_0_1)">
<g filter="url(#filter2_d_0_1)">
<path d="M109 0V210C51.0025 210 4 162.997 4 105C4 47.0026 51.0025 0 109 0Z" fill="#EA4435"/>
<path d="M214 105C214 162.997 166.997 210 109 210V0C166.997 0 214 47.0026 214 105Z" fill="#547DBF"/>
<path d="M214 105C214 162.997 166.997 210 109 210C51.0025 210 4 162.997 4 105H214Z" fill="#33A852"/>
<path d="M214 105C214 162.997 166.998 210 109 210V105H214Z" fill="#F9BC15"/>
</g>
<path d="M108.525 193.609C157.724 193.609 197.609 153.725 197.609 104.525C197.609 55.3255 157.724 15.4414 108.525 15.4414C59.3256 15.4414 19.4415 55.3255 19.4415 104.525C19.4415 153.725 59.3256 193.609 108.525 193.609Z" fill="white"/>
<path d="M77.525 131.7C73.225 131.7 69.45 130.55 66.2 128.25C62.95 125.9 60.425 122.7 58.625 118.65C56.875 114.55 56 109.95 56 104.85C56 99.75 56.875 95.175 58.625 91.125C60.425 87.025 62.95 83.825 66.2 81.525C69.45 79.175 73.225 78 77.525 78C81.825 78 85.6 79.175 88.85 81.525C92.1 83.825 94.6 87.025 96.35 91.125C98.15 95.175 99.05 99.75 99.05 104.85C99.05 109.95 98.15 114.55 96.35 118.65C94.6 122.7 92.1 125.9 88.85 128.25C85.6 130.55 81.825 131.7 77.525 131.7ZM77.525 122.475C79.925 122.475 82 121.725 83.75 120.225C85.55 118.675 86.9 116.575 87.8 113.925C88.75 111.225 89.225 108.2 89.225 104.85C89.225 99.65 88.175 95.425 86.075 92.175C83.975 88.875 81.125 87.225 77.525 87.225C73.975 87.225 71.15 88.875 69.05 92.175C66.95 95.475 65.9 99.7 65.9 104.85C65.9 108.2 66.35 111.225 67.25 113.925C68.2 116.575 69.55 118.675 71.3 120.225C73.1 121.725 75.175 122.475 77.525 122.475ZM124.235 131.7C119.885 131.7 116.035 130.55 112.685 128.25C109.385 125.95 107.11 122.6 105.86 118.2L115.16 114.525C115.76 116.975 116.835 118.875 118.385 120.225C119.935 121.525 121.885 122.175 124.235 122.175C126.385 122.175 128.235 121.525 129.785 120.225C131.385 118.925 132.185 117.275 132.185 115.275C132.185 113.125 131.335 111.425 129.635 110.175C127.985 108.875 125.735 108.225 122.885 108.225H118.46V99.3H122.51C124.71 99.3 126.56 98.75 128.06 97.65C129.61 96.55 130.385 94.95 130.385 92.85C130.385 91.15 129.76 89.75 128.51 88.65C127.26 87.55 125.66 87 123.71 87C121.66 87 120.01 87.55 118.76 88.65C117.51 89.75 116.635 91.125 116.135 92.775L107.21 89.1C108.26 86.1 110.185 83.5 112.985 81.3C115.835 79.1 119.435 78 123.785 78C126.985 78 129.835 78.6 132.335 79.8C134.885 81 136.86 82.65 138.26 84.75C139.66 86.8 140.36 89.125 140.36 91.725C140.36 94.475 139.71 96.825 138.41 98.775C137.16 100.725 135.635 102.15 133.835 103.05V103.65C136.335 104.65 138.36 106.225 139.91 108.375C141.46 110.525 142.235 113.125 142.235 116.175C142.235 119.125 141.485 121.775 139.985 124.125C138.485 126.475 136.36 128.325 133.61 129.675C130.91 131.025 127.785 131.7 124.235 131.7ZM184.634 114.525H171.809V127.275H163.109V114.525H150.359V105.825H163.109V93.075H171.809V105.825H184.634V114.525Z" fill="#5F5F5F"/>
</g>
<g clip-path="url(#clip3_0_1)">
<g filter="url(#filter3_d_0_1)">
<path d="M1150 0V210C1092 210 1045 162.997 1045 105C1045 47.0026 1092 0 1150 0Z" fill="#EA4435"/>
<path d="M1255 105C1255 162.997 1208 210 1150 210V0C1208 0 1255 47.0026 1255 105Z" fill="#547DBF"/>
<path d="M1255 105C1255 162.997 1208 210 1150 210C1092 210 1045 162.997 1045 105H1255Z" fill="#33A852"/>
<path d="M1255 105C1255 162.997 1208 210 1150 210V105H1255Z" fill="#F9BC15"/>
</g>
<path d="M1149.52 193.609C1198.72 193.609 1238.61 153.725 1238.61 104.525C1238.61 55.3255 1198.72 15.4414 1149.52 15.4414C1100.33 15.4414 1060.44 55.3255 1060.44 104.525C1060.44 153.725 1100.33 193.609 1149.52 193.609Z" fill="white"/>
<path d="M1079.36 118.86C1080.68 117.54 1083.22 115 1086.98 111.24C1090.78 107.44 1093.22 104.96 1094.3 103.8C1095.74 102.24 1096.72 100.94 1097.24 99.9C1097.8 98.86 1098.08 97.68 1098.08 96.36C1098.08 94.96 1097.56 93.78 1096.52 92.82C1095.48 91.86 1094.1 91.38 1092.38 91.38C1090.7 91.38 1089.34 91.86 1088.3 92.82C1087.26 93.78 1086.52 94.98 1086.08 96.42L1079 93.48C1079.44 91.92 1080.24 90.42 1081.4 88.98C1082.6 87.5 1084.14 86.3 1086.02 85.38C1087.9 84.46 1090.06 84 1092.5 84C1095.22 84 1097.6 84.54 1099.64 85.62C1101.68 86.66 1103.26 88.1 1104.38 89.94C1105.5 91.74 1106.06 93.76 1106.06 96C1106.06 100.44 1103.9 104.78 1099.58 109.02C1097.82 110.74 1094.56 113.98 1089.8 118.74L1089.98 119.1H1106.6V126H1079.36V118.86ZM1129.8 126.96C1126.36 126.96 1123.34 126.04 1120.74 124.2C1118.14 122.32 1116.12 119.76 1114.68 116.52C1113.28 113.24 1112.58 109.56 1112.58 105.48C1112.58 101.4 1113.28 97.74 1114.68 94.5C1116.12 91.22 1118.14 88.66 1120.74 86.82C1123.34 84.94 1126.36 84 1129.8 84C1133.24 84 1136.26 84.94 1138.86 86.82C1141.46 88.66 1143.46 91.22 1144.86 94.5C1146.3 97.74 1147.02 101.4 1147.02 105.48C1147.02 109.56 1146.3 113.24 1144.86 116.52C1143.46 119.76 1141.46 122.32 1138.86 124.2C1136.26 126.04 1133.24 126.96 1129.8 126.96ZM1129.8 119.58C1131.72 119.58 1133.38 118.98 1134.78 117.78C1136.22 116.54 1137.3 114.86 1138.02 112.74C1138.78 110.58 1139.16 108.16 1139.16 105.48C1139.16 101.32 1138.32 97.94 1136.64 95.34C1134.96 92.7 1132.68 91.38 1129.8 91.38C1126.96 91.38 1124.7 92.7 1123.02 95.34C1121.34 97.98 1120.5 101.36 1120.5 105.48C1120.5 108.16 1120.86 110.58 1121.58 112.74C1122.34 114.86 1123.42 116.54 1124.82 117.78C1126.26 118.98 1127.92 119.58 1129.8 119.58ZM1170.29 126.96C1166.85 126.96 1163.83 126.04 1161.23 124.2C1158.63 122.32 1156.61 119.76 1155.17 116.52C1153.77 113.24 1153.07 109.56 1153.07 105.48C1153.07 101.4 1153.77 97.74 1155.17 94.5C1156.61 91.22 1158.63 88.66 1161.23 86.82C1163.83 84.94 1166.85 84 1170.29 84C1173.73 84 1176.75 84.94 1179.35 86.82C1181.95 88.66 1183.95 91.22 1185.35 94.5C1186.79 97.74 1187.51 101.4 1187.51 105.48C1187.51 109.56 1186.79 113.24 1185.35 116.52C1183.95 119.76 1181.95 122.32 1179.35 124.2C1176.75 126.04 1173.73 126.96 1170.29 126.96ZM1170.29 119.58C1172.21 119.58 1173.87 118.98 1175.27 117.78C1176.71 116.54 1177.79 114.86 1178.51 112.74C1179.27 110.58 1179.65 108.16 1179.65 105.48C1179.65 101.32 1178.81 97.94 1177.13 95.34C1175.45 92.7 1173.17 91.38 1170.29 91.38C1167.45 91.38 1165.19 92.7 1163.51 95.34C1161.83 97.98 1160.99 101.36 1160.99 105.48C1160.99 108.16 1161.35 110.58 1162.07 112.74C1162.83 114.86 1163.91 116.54 1165.31 117.78C1166.75 118.98 1168.41 119.58 1170.29 119.58ZM1221.76 113.22H1211.5V123.42H1204.54V113.22H1194.34V106.26H1204.54V96.06H1211.5V106.26H1221.76V113.22Z" fill="#5F5F5F"/>
</g>
<path d="M66.7803 282.014L56.6583 265.928H62.2443L69.0063 277.1H69.2583L75.8103 265.928H81.4383L71.4843 282.014V296H66.7803V282.014ZM90.3226 296.672C88.2226 296.672 86.3326 296.182 84.6526 295.202C83.0006 294.222 81.6986 292.878 80.7466 291.17C79.8226 289.434 79.3606 287.488 79.3606 285.332C79.3606 283.288 79.8086 281.398 80.7046 279.662C81.6286 277.898 82.9026 276.498 84.5266 275.462C86.1506 274.426 87.9986 273.908 90.0706 273.908C92.2266 273.908 94.0886 274.384 95.6566 275.336C97.2526 276.288 98.4566 277.59 99.2686 279.242C100.109 280.894 100.529 282.756 100.529 284.828C100.529 285.22 100.487 285.71 100.403 286.298H83.9806C84.1486 288.286 84.8486 289.826 86.0806 290.918C87.3406 291.982 88.7966 292.514 90.4486 292.514C91.7646 292.514 92.8986 292.22 93.8506 291.632C94.8306 291.016 95.6146 290.19 96.2026 289.154L100.109 291.002C99.1006 292.766 97.7846 294.152 96.1606 295.16C94.5366 296.168 92.5906 296.672 90.3226 296.672ZM95.8246 282.77C95.7686 282.014 95.5306 281.272 95.1106 280.544C94.6906 279.788 94.0466 279.158 93.1786 278.654C92.3386 278.15 91.3026 277.898 90.0706 277.898C88.5866 277.898 87.3266 278.346 86.2906 279.242C85.2826 280.11 84.5826 281.286 84.1906 282.77H95.8246ZM111.661 296.672C110.121 296.672 108.749 296.378 107.545 295.79C106.341 295.174 105.403 294.32 104.731 293.228C104.059 292.108 103.723 290.848 103.723 289.448C103.723 287.236 104.549 285.486 106.201 284.198C107.881 282.91 109.995 282.266 112.543 282.266C113.803 282.266 114.937 282.392 115.945 282.644C116.953 282.868 117.751 283.12 118.339 283.4V282.308C118.339 280.992 117.849 279.928 116.869 279.116C115.889 278.276 114.629 277.856 113.089 277.856C111.997 277.856 110.961 278.094 109.981 278.57C109.029 279.046 108.259 279.704 107.671 280.544L104.437 278.066C105.389 276.75 106.621 275.728 108.133 275C109.645 274.272 111.325 273.908 113.173 273.908C116.281 273.908 118.675 274.678 120.355 276.218C122.035 277.73 122.875 279.872 122.875 282.644V296H118.339V293.438H118.129C117.513 294.362 116.645 295.132 115.525 295.748C114.405 296.364 113.117 296.672 111.661 296.672ZM112.459 292.85C113.579 292.85 114.587 292.584 115.483 292.052C116.379 291.52 117.079 290.806 117.583 289.91C118.087 289.014 118.339 288.048 118.339 287.012C117.695 286.648 116.939 286.354 116.071 286.13C115.231 285.906 114.349 285.794 113.425 285.794C111.689 285.794 110.415 286.144 109.603 286.844C108.791 287.516 108.385 288.398 108.385 289.49C108.385 290.47 108.763 291.282 109.519 291.926C110.275 292.542 111.255 292.85 112.459 292.85ZM127.91 274.58H132.32V277.73H132.53C133.006 276.638 133.832 275.742 135.008 275.042C136.184 274.314 137.43 273.95 138.746 273.95C139.782 273.95 140.65 274.09 141.35 274.37V279.158C140.118 278.71 139.012 278.486 138.032 278.486C136.968 278.486 136.016 278.766 135.176 279.326C134.364 279.886 133.72 280.642 133.244 281.594C132.768 282.518 132.53 283.54 132.53 284.66V296H127.91V274.58ZM151.882 296.672C149.418 296.672 147.402 296.14 145.834 295.076C144.266 293.984 143.16 292.598 142.516 290.918L146.632 289.112C147.136 290.232 147.836 291.086 148.732 291.674C149.656 292.262 150.706 292.556 151.882 292.556C153.03 292.556 153.996 292.36 154.78 291.968C155.564 291.548 155.956 290.932 155.956 290.12C155.956 289.336 155.62 288.72 154.948 288.272C154.276 287.824 153.24 287.432 151.84 287.096L149.278 286.466C147.57 286.046 146.156 285.304 145.036 284.24C143.916 283.176 143.356 281.832 143.356 280.208C143.356 278.948 143.72 277.842 144.448 276.89C145.204 275.938 146.212 275.21 147.472 274.706C148.732 274.174 150.104 273.908 151.588 273.908C153.576 273.908 155.326 274.314 156.838 275.126C158.35 275.91 159.442 277.058 160.114 278.57L156.082 280.334C155.27 278.682 153.786 277.856 151.63 277.856C150.594 277.856 149.726 278.066 149.026 278.486C148.326 278.906 147.976 279.452 147.976 280.124C147.976 280.768 148.242 281.3 148.774 281.72C149.306 282.112 150.09 282.448 151.126 282.728L154.276 283.526C156.376 284.058 157.958 284.87 159.022 285.962C160.114 287.026 160.66 288.342 160.66 289.91C160.66 291.254 160.268 292.444 159.484 293.48C158.728 294.488 157.678 295.272 156.334 295.832C154.99 296.392 153.506 296.672 151.882 296.672Z" fill="#353535"/>
<path d="M394.127 265.928H412.397V270.422H398.831V278.738H411.053V283.19H398.831V291.506H412.397V296H394.127V265.928ZM414.273 274.58H419.439L425.361 290.036H425.529L431.577 274.58H436.617L427.713 296H423.093L414.273 274.58ZM448.766 296.672C446.666 296.672 444.776 296.182 443.096 295.202C441.444 294.222 440.142 292.878 439.19 291.17C438.266 289.434 437.804 287.488 437.804 285.332C437.804 283.288 438.252 281.398 439.148 279.662C440.072 277.898 441.346 276.498 442.97 275.462C444.594 274.426 446.442 273.908 448.514 273.908C450.67 273.908 452.532 274.384 454.1 275.336C455.696 276.288 456.9 277.59 457.712 279.242C458.552 280.894 458.972 282.756 458.972 284.828C458.972 285.22 458.93 285.71 458.846 286.298H442.424C442.592 288.286 443.292 289.826 444.524 290.918C445.784 291.982 447.24 292.514 448.892 292.514C450.208 292.514 451.342 292.22 452.294 291.632C453.274 291.016 454.058 290.19 454.646 289.154L458.552 291.002C457.544 292.766 456.228 294.152 454.604 295.16C452.98 296.168 451.034 296.672 448.766 296.672ZM454.268 282.77C454.212 282.014 453.974 281.272 453.554 280.544C453.134 279.788 452.49 279.158 451.622 278.654C450.782 278.15 449.746 277.898 448.514 277.898C447.03 277.898 445.77 278.346 444.734 279.242C443.726 280.11 443.026 281.286 442.634 282.77H454.268ZM463.179 274.58H467.589V277.394H467.799C468.415 276.386 469.325 275.56 470.529 274.916C471.761 274.244 473.063 273.908 474.435 273.908C477.039 273.908 479.013 274.678 480.357 276.218C481.729 277.73 482.415 279.802 482.415 282.434V296H477.795V283.064C477.795 281.384 477.375 280.152 476.535 279.368C475.723 278.584 474.589 278.192 473.133 278.192C472.097 278.192 471.173 278.486 470.361 279.074C469.549 279.634 468.919 280.39 468.471 281.342C468.023 282.294 467.799 283.316 467.799 284.408V296H463.179V274.58ZM495.336 296.336C494.384 296.336 493.488 296.182 492.648 295.874C491.808 295.566 491.122 295.16 490.59 294.656C489.386 293.452 488.784 291.814 488.784 289.742V278.654H485.046V274.58H488.784V268.532H493.404V274.58H498.612V278.654H493.404V288.734C493.404 289.882 493.628 290.694 494.076 291.17C494.496 291.73 495.224 292.01 496.26 292.01C496.736 292.01 497.156 291.954 497.52 291.842C497.884 291.702 498.276 291.492 498.696 291.212V295.706C497.772 296.126 496.652 296.336 495.336 296.336ZM511.228 296.672C508.764 296.672 506.748 296.14 505.18 295.076C503.612 293.984 502.506 292.598 501.862 290.918L505.978 289.112C506.482 290.232 507.182 291.086 508.078 291.674C509.002 292.262 510.052 292.556 511.228 292.556C512.376 292.556 513.342 292.36 514.126 291.968C514.91 291.548 515.302 290.932 515.302 290.12C515.302 289.336 514.966 288.72 514.294 288.272C513.622 287.824 512.586 287.432 511.186 287.096L508.624 286.466C506.916 286.046 505.502 285.304 504.382 284.24C503.262 283.176 502.702 281.832 502.702 280.208C502.702 278.948 503.066 277.842 503.794 276.89C504.55 275.938 505.558 275.21 506.818 274.706C508.078 274.174 509.45 273.908 510.934 273.908C512.922 273.908 514.672 274.314 516.184 275.126C517.696 275.91 518.788 277.058 519.46 278.57L515.428 280.334C514.616 278.682 513.132 277.856 510.976 277.856C509.94 277.856 509.072 278.066 508.372 278.486C507.672 278.906 507.322 279.452 507.322 280.124C507.322 280.768 507.588 281.3 508.12 281.72C508.652 282.112 509.436 282.448 510.472 282.728L513.622 283.526C515.722 284.058 517.304 284.87 518.368 285.962C519.46 287.026 520.006 288.342 520.006 289.91C520.006 291.254 519.614 292.444 518.83 293.48C518.074 294.488 517.024 295.272 515.68 295.832C514.336 296.392 512.852 296.672 511.228 296.672Z" fill="#353535"/>
<path d="M705.612 296.672C702.7 296.672 700.04 295.986 697.632 294.614C695.224 293.242 693.334 291.352 691.962 288.944C690.59 286.536 689.904 283.876 689.904 280.964C689.904 278.052 690.59 275.392 691.962 272.984C693.334 270.576 695.224 268.686 697.632 267.314C700.04 265.942 702.7 265.256 705.612 265.256C707.88 265.256 709.938 265.676 711.786 266.516C713.662 267.356 715.314 268.574 716.742 270.17L713.382 273.404C712.346 272.172 711.198 271.262 709.938 270.674C708.678 270.058 707.236 269.75 705.612 269.75C703.596 269.75 701.748 270.212 700.068 271.136C698.416 272.06 697.1 273.376 696.12 275.084C695.14 276.764 694.65 278.724 694.65 280.964C694.65 283.204 695.14 285.178 696.12 286.886C697.1 288.566 698.416 289.868 700.068 290.792C701.748 291.716 703.596 292.178 705.612 292.178C708.972 292.178 711.828 290.778 714.18 287.978L717.582 291.254C716.126 292.962 714.376 294.292 712.332 295.244C710.288 296.196 708.048 296.672 705.612 296.672ZM731.295 296.672C729.139 296.672 727.207 296.182 725.499 295.202C723.791 294.194 722.461 292.822 721.509 291.086C720.557 289.35 720.081 287.418 720.081 285.29C720.081 283.162 720.557 281.23 721.509 279.494C722.461 277.758 723.791 276.4 725.499 275.42C727.207 274.412 729.139 273.908 731.295 273.908C733.451 273.908 735.383 274.412 737.091 275.42C738.799 276.428 740.129 277.8 741.081 279.536C742.033 281.272 742.509 283.19 742.509 285.29C742.509 287.418 742.033 289.35 741.081 291.086C740.129 292.822 738.799 294.194 737.091 295.202C735.383 296.182 733.451 296.672 731.295 296.672ZM731.295 292.43C732.471 292.43 733.563 292.15 734.571 291.59C735.579 291.002 736.377 290.176 736.965 289.112C737.581 288.02 737.889 286.746 737.889 285.29C737.889 283.834 737.581 282.574 736.965 281.51C736.377 280.446 735.579 279.634 734.571 279.074C733.563 278.486 732.471 278.192 731.295 278.192C730.119 278.192 729.027 278.486 728.019 279.074C727.011 279.634 726.199 280.446 725.583 281.51C724.995 282.574 724.701 283.834 724.701 285.29C724.701 286.746 724.995 288.02 725.583 289.112C726.199 290.176 727.011 291.002 728.019 291.59C729.027 292.15 730.119 292.43 731.295 292.43ZM746.359 274.58H750.769V277.394H750.979C751.623 276.358 752.533 275.518 753.709 274.874C754.885 274.23 756.145 273.908 757.489 273.908C759.029 273.908 760.373 274.272 761.521 275C762.669 275.7 763.495 276.638 763.999 277.814C764.727 276.638 765.693 275.7 766.897 275C768.129 274.272 769.571 273.908 771.223 273.908C773.687 273.908 775.549 274.664 776.809 276.176C778.097 277.66 778.741 279.69 778.741 282.266V296H774.121V283.064C774.121 279.816 772.735 278.192 769.963 278.192C768.479 278.192 767.261 278.794 766.309 279.998C765.357 281.202 764.881 282.686 764.881 284.45V296H760.261V283.064C760.261 279.816 758.833 278.192 755.977 278.192C754.521 278.192 753.317 278.794 752.365 279.998C751.441 281.202 750.979 282.686 750.979 284.45V296H746.359V274.58ZM784.011 274.58H788.421V277.394H788.631C789.275 276.358 790.185 275.518 791.361 274.874C792.537 274.23 793.797 273.908 795.141 273.908C796.681 273.908 798.025 274.272 799.173 275C800.321 275.7 801.147 276.638 801.651 277.814C802.379 276.638 803.345 275.7 804.549 275C805.781 274.272 807.223 273.908 808.875 273.908C811.339 273.908 813.201 274.664 814.461 276.176C815.749 277.66 816.393 279.69 816.393 282.266V296H811.773V283.064C811.773 279.816 810.387 278.192 807.615 278.192C806.131 278.192 804.913 278.794 803.961 279.998C803.009 281.202 802.533 282.686 802.533 284.45V296H797.913V283.064C797.913 279.816 796.485 278.192 793.629 278.192C792.173 278.192 790.969 278.794 790.017 279.998C789.093 281.202 788.631 282.686 788.631 284.45V296H784.011V274.58ZM829.476 296.672C826.872 296.672 824.884 295.902 823.512 294.362C822.168 292.794 821.496 290.624 821.496 287.852V274.58H826.116V287.222C826.116 288.958 826.522 290.26 827.334 291.128C828.174 291.996 829.266 292.43 830.61 292.43C831.702 292.43 832.668 292.15 833.508 291.59C834.348 291.002 834.992 290.232 835.44 289.28C835.888 288.328 836.112 287.306 836.112 286.214V274.58H840.732V296H836.364V293.228H836.112C835.524 294.236 834.614 295.062 833.382 295.706C832.15 296.35 830.848 296.672 829.476 296.672ZM846.109 274.58H850.519V277.394H850.729C851.345 276.386 852.255 275.56 853.459 274.916C854.691 274.244 855.993 273.908 857.365 273.908C859.969 273.908 861.943 274.678 863.287 276.218C864.659 277.73 865.345 279.802 865.345 282.434V296H860.725V283.064C860.725 281.384 860.305 280.152 859.465 279.368C858.653 278.584 857.519 278.192 856.063 278.192C855.027 278.192 854.103 278.486 853.291 279.074C852.479 279.634 851.849 280.39 851.401 281.342C850.953 282.294 850.729 283.316 850.729 284.408V296H846.109V274.58ZM873.2 271.472C872.332 271.472 871.59 271.178 870.974 270.59C870.386 269.974 870.092 269.232 870.092 268.364C870.092 267.496 870.386 266.768 870.974 266.18C871.59 265.564 872.332 265.256 873.2 265.256C874.068 265.256 874.796 265.564 875.384 266.18C876 266.768 876.308 267.496 876.308 268.364C876.308 269.232 876 269.974 875.384 270.59C874.796 271.178 874.068 271.472 873.2 271.472ZM870.89 274.58H875.51V296H870.89V274.58ZM889.832 296.336C888.88 296.336 887.984 296.182 887.144 295.874C886.304 295.566 885.618 295.16 885.086 294.656C883.882 293.452 883.28 291.814 883.28 289.742V278.654H879.542V274.58H883.28V268.532H887.9V274.58H893.108V278.654H887.9V288.734C887.9 289.882 888.124 290.694 888.572 291.17C888.992 291.73 889.72 292.01 890.756 292.01C891.232 292.01 891.652 291.954 892.016 291.842C892.38 291.702 892.772 291.492 893.192 291.212V295.706C892.268 296.126 891.148 296.336 889.832 296.336ZM904.259 294.824L895.355 274.58H900.521L906.569 289.154H906.737L912.617 274.58H917.699L904.469 305.072H899.597L904.259 294.824ZM713.462 318.928H719.846L728.498 341.734H728.75L737.402 318.928H743.786V349H739.124V332.158L739.376 326.74H739.124L730.514 349H726.734L718.124 326.74H717.872L718.124 332.158V349H713.462V318.928ZM759.693 349.672C757.593 349.672 755.703 349.182 754.023 348.202C752.371 347.222 751.069 345.878 750.117 344.17C749.193 342.434 748.731 340.488 748.731 338.332C748.731 336.288 749.179 334.398 750.075 332.662C750.999 330.898 752.273 329.498 753.897 328.462C755.521 327.426 757.369 326.908 759.441 326.908C761.597 326.908 763.459 327.384 765.027 328.336C766.623 329.288 767.827 330.59 768.639 332.242C769.479 333.894 769.899 335.756 769.899 337.828C769.899 338.22 769.857 338.71 769.773 339.298H753.351C753.519 341.286 754.219 342.826 755.451 343.918C756.711 344.982 758.167 345.514 759.819 345.514C761.135 345.514 762.269 345.22 763.221 344.632C764.201 344.016 764.985 343.19 765.573 342.154L769.479 344.002C768.471 345.766 767.155 347.152 765.531 348.16C763.907 349.168 761.961 349.672 759.693 349.672ZM765.195 335.77C765.139 335.014 764.901 334.272 764.481 333.544C764.061 332.788 763.417 332.158 762.549 331.654C761.709 331.15 760.673 330.898 759.441 330.898C757.957 330.898 756.697 331.346 755.661 332.242C754.653 333.11 753.953 334.286 753.561 335.77H765.195ZM774.106 327.58H778.516V330.394H778.726C779.37 329.358 780.28 328.518 781.456 327.874C782.632 327.23 783.892 326.908 785.236 326.908C786.776 326.908 788.12 327.272 789.268 328C790.416 328.7 791.242 329.638 791.746 330.814C792.474 329.638 793.44 328.7 794.644 328C795.876 327.272 797.318 326.908 798.97 326.908C801.434 326.908 803.296 327.664 804.556 329.176C805.844 330.66 806.488 332.69 806.488 335.266V349H801.868V336.064C801.868 332.816 800.482 331.192 797.71 331.192C796.226 331.192 795.008 331.794 794.056 332.998C793.104 334.202 792.628 335.686 792.628 337.45V349H788.008V336.064C788.008 332.816 786.58 331.192 783.724 331.192C782.268 331.192 781.064 331.794 780.112 332.998C779.188 334.202 778.726 335.686 778.726 337.45V349H774.106V327.58ZM823.182 349.672C821.67 349.672 820.312 349.336 819.108 348.664C817.904 347.992 816.994 347.18 816.378 346.228H816.168V349H811.758V318.928H816.378V327.37L816.168 330.394H816.378C816.994 329.414 817.904 328.588 819.108 327.916C820.312 327.244 821.67 326.908 823.182 326.908C825.114 326.908 826.864 327.398 828.432 328.378C830 329.358 831.232 330.716 832.128 332.452C833.052 334.16 833.514 336.106 833.514 338.29C833.514 340.474 833.052 342.434 832.128 344.17C831.232 345.878 830 347.222 828.432 348.202C826.864 349.182 825.114 349.672 823.182 349.672ZM822.51 345.43C823.63 345.43 824.68 345.136 825.66 344.548C826.64 343.96 827.424 343.12 828.012 342.028C828.6 340.936 828.894 339.69 828.894 338.29C828.894 336.89 828.6 335.658 828.012 334.594C827.424 333.502 826.64 332.662 825.66 332.074C824.68 331.486 823.63 331.192 822.51 331.192C821.39 331.192 820.34 331.486 819.36 332.074C818.408 332.662 817.638 333.502 817.05 334.594C816.462 335.658 816.168 336.89 816.168 338.29C816.168 339.69 816.462 340.936 817.05 342.028C817.638 343.12 818.408 343.96 819.36 344.548C820.34 345.136 821.39 345.43 822.51 345.43ZM847.507 349.672C845.407 349.672 843.517 349.182 841.837 348.202C840.185 347.222 838.883 345.878 837.931 344.17C837.007 342.434 836.545 340.488 836.545 338.332C836.545 336.288 836.993 334.398 837.889 332.662C838.813 330.898 840.087 329.498 841.711 328.462C843.335 327.426 845.183 326.908 847.255 326.908C849.411 326.908 851.273 327.384 852.841 328.336C854.437 329.288 855.641 330.59 856.453 332.242C857.293 333.894 857.713 335.756 857.713 337.828C857.713 338.22 857.671 338.71 857.587 339.298H841.165C841.333 341.286 842.033 342.826 843.265 343.918C844.525 344.982 845.981 345.514 847.633 345.514C848.949 345.514 850.083 345.22 851.035 344.632C852.015 344.016 852.799 343.19 853.387 342.154L857.293 344.002C856.285 345.766 854.969 347.152 853.345 348.16C851.721 349.168 849.775 349.672 847.507 349.672ZM853.009 335.77C852.953 335.014 852.715 334.272 852.295 333.544C851.875 332.788 851.231 332.158 850.363 331.654C849.523 331.15 848.487 330.898 847.255 330.898C845.771 330.898 844.511 331.346 843.475 332.242C842.467 333.11 841.767 334.286 841.375 335.77H853.009ZM861.92 327.58H866.33V330.73H866.54C867.016 329.638 867.842 328.742 869.018 328.042C870.194 327.314 871.44 326.95 872.756 326.95C873.792 326.95 874.66 327.09 875.36 327.37V332.158C874.128 331.71 873.022 331.486 872.042 331.486C870.978 331.486 870.026 331.766 869.186 332.326C868.374 332.886 867.73 333.642 867.254 334.594C866.778 335.518 866.54 336.54 866.54 337.66V349H861.92V327.58ZM885.893 349.672C883.429 349.672 881.413 349.14 879.845 348.076C878.277 346.984 877.171 345.598 876.527 343.918L880.643 342.112C881.147 343.232 881.847 344.086 882.743 344.674C883.667 345.262 884.717 345.556 885.893 345.556C887.041 345.556 888.007 345.36 888.791 344.968C889.575 344.548 889.967 343.932 889.967 343.12C889.967 342.336 889.631 341.72 888.959 341.272C888.287 340.824 887.251 340.432 885.851 340.096L883.289 339.466C881.581 339.046 880.167 338.304 879.047 337.24C877.927 336.176 877.367 334.832 877.367 333.208C877.367 331.948 877.731 330.842 878.459 329.89C879.215 328.938 880.223 328.21 881.483 327.706C882.743 327.174 884.115 326.908 885.599 326.908C887.587 326.908 889.337 327.314 890.849 328.126C892.361 328.91 893.453 330.058 894.125 331.57L890.093 333.334C889.281 331.682 887.797 330.856 885.641 330.856C884.605 330.856 883.737 331.066 883.037 331.486C882.337 331.906 881.987 332.452 881.987 333.124C881.987 333.768 882.253 334.3 882.785 334.72C883.317 335.112 884.101 335.448 885.137 335.728L888.287 336.526C890.387 337.058 891.969 337.87 893.033 338.962C894.125 340.026 894.671 341.342 894.671 342.91C894.671 344.254 894.279 345.444 893.495 346.48C892.739 347.488 891.689 348.272 890.345 348.832C889.001 349.392 887.517 349.672 885.893 349.672Z" fill="#353535"/>
<path d="M1061.5 265.928H1066.88L1078.18 296H1072.97L1070.28 288.314H1058.14L1055.41 296H1050.2L1061.5 265.928ZM1068.68 283.946L1065.49 275L1064.32 271.514H1064.06L1062.89 275L1059.7 283.946H1068.68ZM1088.81 296.336C1087.85 296.336 1086.96 296.182 1086.12 295.874C1085.28 295.566 1084.59 295.16 1084.06 294.656C1082.86 293.452 1082.25 291.814 1082.25 289.742V278.654H1078.52V274.58H1082.25V268.532H1086.87V274.58H1095.9V268.532H1100.52V274.58H1105.73V278.654H1100.52V288.734C1100.52 289.882 1100.75 290.694 1101.2 291.17C1101.62 291.73 1102.34 292.01 1103.38 292.01C1103.86 292.01 1104.28 291.954 1104.64 291.842C1105 291.702 1105.4 291.492 1105.82 291.212V295.706C1104.86 296.126 1103.74 296.336 1102.46 296.336C1101.5 296.336 1100.61 296.182 1099.77 295.874C1098.93 295.566 1098.24 295.16 1097.71 294.656C1096.51 293.452 1095.9 291.814 1095.9 289.742V278.654H1086.87V288.734C1086.87 289.882 1087.1 290.694 1087.55 291.17C1087.97 291.73 1088.68 292.01 1089.69 292.01C1090.42 292.01 1091.16 291.772 1091.91 291.296V295.79C1091.47 295.986 1091 296.126 1090.53 296.21C1090.08 296.294 1089.51 296.336 1088.81 296.336ZM1119.1 296.672C1117 296.672 1115.11 296.182 1113.43 295.202C1111.78 294.222 1110.48 292.878 1109.52 291.17C1108.6 289.434 1108.14 287.488 1108.14 285.332C1108.14 283.288 1108.59 281.398 1109.48 279.662C1110.41 277.898 1111.68 276.498 1113.3 275.462C1114.93 274.426 1116.78 273.908 1118.85 273.908C1121 273.908 1122.87 274.384 1124.43 275.336C1126.03 276.288 1127.23 277.59 1128.05 279.242C1128.89 280.894 1129.31 282.756 1129.31 284.828C1129.31 285.22 1129.26 285.71 1129.18 286.298H1112.76C1112.93 288.286 1113.63 289.826 1114.86 290.918C1116.12 291.982 1117.57 292.514 1119.23 292.514C1120.54 292.514 1121.68 292.22 1122.63 291.632C1123.61 291.016 1124.39 290.19 1124.98 289.154L1128.89 291.002C1127.88 292.766 1126.56 294.152 1124.94 295.16C1123.31 296.168 1121.37 296.672 1119.1 296.672ZM1124.6 282.77C1124.55 282.014 1124.31 281.272 1123.89 280.544C1123.47 279.788 1122.82 279.158 1121.96 278.654C1121.12 278.15 1120.08 277.898 1118.85 277.898C1117.36 277.898 1116.1 278.346 1115.07 279.242C1114.06 280.11 1113.36 281.286 1112.97 282.77H1124.6ZM1133.51 274.58H1137.92V277.394H1138.13C1138.75 276.386 1139.66 275.56 1140.86 274.916C1142.1 274.244 1143.4 273.908 1144.77 273.908C1147.37 273.908 1149.35 274.678 1150.69 276.218C1152.06 277.73 1152.75 279.802 1152.75 282.434V296H1148.13V283.064C1148.13 281.384 1147.71 280.152 1146.87 279.368C1146.06 278.584 1144.92 278.192 1143.47 278.192C1142.43 278.192 1141.51 278.486 1140.7 279.074C1139.88 279.634 1139.25 280.39 1138.81 281.342C1138.36 282.294 1138.13 283.316 1138.13 284.408V296H1133.51V274.58ZM1167.11 296.672C1165.18 296.672 1163.43 296.182 1161.86 295.202C1160.3 294.222 1159.05 292.878 1158.13 291.17C1157.23 289.434 1156.78 287.474 1156.78 285.29C1156.78 283.106 1157.23 281.16 1158.13 279.452C1159.05 277.716 1160.3 276.358 1161.86 275.378C1163.43 274.398 1165.18 273.908 1167.11 273.908C1168.63 273.908 1169.98 274.244 1171.19 274.916C1172.39 275.588 1173.3 276.414 1173.92 277.394H1174.13L1173.92 274.37V265.928H1178.54V296H1174.13V293.228H1173.92C1173.3 294.18 1172.39 294.992 1171.19 295.664C1169.98 296.336 1168.63 296.672 1167.11 296.672ZM1167.79 292.43C1168.91 292.43 1169.94 292.136 1170.89 291.548C1171.87 290.96 1172.66 290.12 1173.25 289.028C1173.83 287.936 1174.13 286.69 1174.13 285.29C1174.13 283.89 1173.83 282.658 1173.25 281.594C1172.66 280.502 1171.87 279.662 1170.89 279.074C1169.94 278.486 1168.91 278.192 1167.79 278.192C1166.67 278.192 1165.62 278.486 1164.64 279.074C1163.66 279.662 1162.87 280.502 1162.28 281.594C1161.7 282.658 1161.4 283.89 1161.4 285.29C1161.4 286.69 1161.7 287.936 1162.28 289.028C1162.87 290.12 1163.66 290.96 1164.64 291.548C1165.62 292.136 1166.67 292.43 1167.79 292.43ZM1193.5 296.672C1191.4 296.672 1189.51 296.182 1187.83 295.202C1186.18 294.222 1184.88 292.878 1183.93 291.17C1183 289.434 1182.54 287.488 1182.54 285.332C1182.54 283.288 1182.99 281.398 1183.88 279.662C1184.81 277.898 1186.08 276.498 1187.71 275.462C1189.33 274.426 1191.18 273.908 1193.25 273.908C1195.41 273.908 1197.27 274.384 1198.84 275.336C1200.43 276.288 1201.64 277.59 1202.45 279.242C1203.29 280.894 1203.71 282.756 1203.71 284.828C1203.71 285.22 1203.67 285.71 1203.58 286.298H1187.16C1187.33 288.286 1188.03 289.826 1189.26 290.918C1190.52 291.982 1191.98 292.514 1193.63 292.514C1194.94 292.514 1196.08 292.22 1197.03 291.632C1198.01 291.016 1198.79 290.19 1199.38 289.154L1203.29 291.002C1202.28 292.766 1200.96 294.152 1199.34 295.16C1197.72 296.168 1195.77 296.672 1193.5 296.672ZM1199 282.77C1198.95 282.014 1198.71 281.272 1198.29 280.544C1197.87 279.788 1197.23 279.158 1196.36 278.654C1195.52 278.15 1194.48 277.898 1193.25 277.898C1191.77 277.898 1190.51 278.346 1189.47 279.242C1188.46 280.11 1187.76 281.286 1187.37 282.77H1199ZM1217.91 296.672C1215.81 296.672 1213.92 296.182 1212.24 295.202C1210.58 294.222 1209.28 292.878 1208.33 291.17C1207.41 289.434 1206.94 287.488 1206.94 285.332C1206.94 283.288 1207.39 281.398 1208.29 279.662C1209.21 277.898 1210.49 276.498 1212.11 275.462C1213.73 274.426 1215.58 273.908 1217.65 273.908C1219.81 273.908 1221.67 274.384 1223.24 275.336C1224.84 276.288 1226.04 277.59 1226.85 279.242C1227.69 280.894 1228.11 282.756 1228.11 284.828C1228.11 285.22 1228.07 285.71 1227.99 286.298H1211.56C1211.73 288.286 1212.43 289.826 1213.66 290.918C1214.92 291.982 1216.38 292.514 1218.03 292.514C1219.35 292.514 1220.48 292.22 1221.43 291.632C1222.41 291.016 1223.2 290.19 1223.79 289.154L1227.69 291.002C1226.68 292.766 1225.37 294.152 1223.74 295.16C1222.12 296.168 1220.17 296.672 1217.91 296.672ZM1223.41 282.77C1223.35 282.014 1223.11 281.272 1222.69 280.544C1222.27 279.788 1221.63 279.158 1220.76 278.654C1219.92 278.15 1218.89 277.898 1217.65 277.898C1216.17 277.898 1214.91 278.346 1213.87 279.242C1212.87 280.11 1212.17 281.286 1211.77 282.77H1223.41ZM1240.34 296.672C1237.87 296.672 1235.86 296.14 1234.29 295.076C1232.72 293.984 1231.61 292.598 1230.97 290.918L1235.09 289.112C1235.59 290.232 1236.29 291.086 1237.19 291.674C1238.11 292.262 1239.16 292.556 1240.34 292.556C1241.48 292.556 1242.45 292.36 1243.23 291.968C1244.02 291.548 1244.41 290.932 1244.41 290.12C1244.41 289.336 1244.07 288.72 1243.4 288.272C1242.73 287.824 1241.69 287.432 1240.29 287.096L1237.73 286.466C1236.02 286.046 1234.61 285.304 1233.49 284.24C1232.37 283.176 1231.81 281.832 1231.81 280.208C1231.81 278.948 1232.17 277.842 1232.9 276.89C1233.66 275.938 1234.67 275.21 1235.93 274.706C1237.19 274.174 1238.56 273.908 1240.04 273.908C1242.03 273.908 1243.78 274.314 1245.29 275.126C1246.8 275.91 1247.9 277.058 1248.57 278.57L1244.54 280.334C1243.72 278.682 1242.24 277.856 1240.08 277.856C1239.05 277.856 1238.18 278.066 1237.48 278.486C1236.78 278.906 1236.43 279.452 1236.43 280.124C1236.43 280.768 1236.7 281.3 1237.23 281.72C1237.76 282.112 1238.54 282.448 1239.58 282.728L1242.73 283.526C1244.83 284.058 1246.41 284.87 1247.48 285.962C1248.57 287.026 1249.11 288.342 1249.11 289.91C1249.11 291.254 1248.72 292.444 1247.94 293.48C1247.18 294.488 1246.13 295.272 1244.79 295.832C1243.44 296.392 1241.96 296.672 1240.34 296.672Z" fill="#353535"/>
<defs>
<filter id="filter0_d_0_1" x="356" y="0" width="213" height="218" filterUnits="userSpaceOnUse" color-interpolation-filters="sRGB">
<feFlood flood-opacity="0" result="BackgroundImageFix"/>
<feColorMatrix in="SourceAlpha" type="matrix" values="0 0 0 0 0 0 0 0 0 0 0 0 0 0 0 0 0 0 127 0" result="hardAlpha"/>
<feOffset dy="4"/>
<feGaussianBlur stdDeviation="2"/>
<feComposite in2="hardAlpha" operator="out"/>
<feColorMatrix type="matrix" values="0 0 0 0 0 0 0 0 0 0 0 0 0 0 0 0 0 0 0.25 0"/>
<feBlend mode="normal" in2="BackgroundImageFix" result="effect1_dropShadow_0_1"/>
<feBlend mode="normal" in="SourceGraphic" in2="effect1_dropShadow_0_1" result="shape"/>
</filter>
<filter id="filter1_d_0_1" x="694" y="0" width="218" height="218" filterUnits="userSpaceOnUse" color-interpolation-filters="sRGB">
<feFlood flood-opacity="0" result="BackgroundImageFix"/>
<feColorMatrix in="SourceAlpha" type="matrix" values="0 0 0 0 0 0 0 0 0 0 0 0 0 0 0 0 0 0 127 0" result="hardAlpha"/>
<feOffset dy="4"/>
<feGaussianBlur stdDeviation="2"/>
<feComposite in2="hardAlpha" operator="out"/>
<feColorMatrix type="matrix" values="0 0 0 0 0 0 0 0 0 0 0 0 0 0 0 0 0 0 0.25 0"/>
<feBlend mode="normal" in2="BackgroundImageFix" result="effect1_dropShadow_0_1"/>
<feBlend mode="normal" in="SourceGraphic" in2="effect1_dropShadow_0_1" result="shape"/>
</filter>
<filter id="filter2_d_0_1" x="0" y="0" width="218" height="218" filterUnits="userSpaceOnUse" color-interpolation-filters="sRGB">
<feFlood flood-opacity="0" result="BackgroundImageFix"/>
<feColorMatrix in="SourceAlpha" type="matrix" values="0 0 0 0 0 0 0 0 0 0 0 0 0 0 0 0 0 0 127 0" result="hardAlpha"/>
<feOffset dy="4"/>
<feGaussianBlur stdDeviation="2"/>
<feComposite in2="hardAlpha" operator="out"/>
<feColorMatrix type="matrix" values="0 0 0 0 0 0 0 0 0 0 0 0 0 0 0 0 0 0 0.25 0"/>
<feBlend mode="normal" in2="BackgroundImageFix" result="effect1_dropShadow_0_1"/>
<feBlend mode="normal" in="SourceGraphic" in2="effect1_dropShadow_0_1" result="shape"/>
</filter>
<filter id="filter3_d_0_1" x="1041" y="0" width="218" height="218" filterUnits="userSpaceOnUse" color-interpolation-filters="sRGB">
<feFlood flood-opacity="0" result="BackgroundImageFix"/>
<feColorMatrix in="SourceAlpha" type="matrix" values="0 0 0 0 0 0 0 0 0 0 0 0 0 0 0 0 0 0 127 0" result="hardAlpha"/>
<feOffset dy="4"/>
<feGaussianBlur stdDeviation="2"/>
<feComposite in2="hardAlpha" operator="out"/>
<feColorMatrix type="matrix" values="0 0 0 0 0 0 0 0 0 0 0 0 0 0 0 0 0 0 0.25 0"/>
<feBlend mode="normal" in2="BackgroundImageFix" result="effect1_dropShadow_0_1"/>
<feBlend mode="normal" in="SourceGraphic" in2="effect1_dropShadow_0_1" result="shape"/>
</filter>
<clipPath id="clip0_0_1">
<rect width="218" height="218" fill="white" transform="translate(347)"/>
</clipPath>
<clipPath id="clip1_0_1">
<rect width="218" height="218" fill="white" transform="translate(694)"/>
</clipPath>
<clipPath id="clip2_0_1">
<rect width="218" height="218" fill="white"/>
</clipPath>
<clipPath id="clip3_0_1">
<rect width="218" height="218" fill="white" transform="translate(1041)"/>
</clipPath>
</defs>
</svg>
